/* XPM */
static char *_159aaf6bcb349a8ed8d4bd2de30bccdL4u6DCEw5fGifRuN[] = {
/* columns rows colors chars-per-pixel */
"64 64 227 2 ",
"   c #000000",
".  c #0A0602",
"X  c #0D0904",
"o  c #0F0F0C",
"O  c #120C03",
"+  c #190F04",
"@  c #120F0A",
"#  c #1D1206",
"$  c #16120B",
"%  c #1A160C",
"&  c #1F1C0F",
"*  c #1E1B11",
"=  c #231506",
"-  c #2B1907",
";  c #21170A",
":  c #251B0B",
">  c #2E1C09",
",  c #321E08",
"<  c #201E12",
"1  c #2B220D",
"2  c #34230C",
"3  c #3C240B",
"4  c #3C290E",
"5  c #2C2414",
"6  c #282419",
"7  c #342B17",
"8  c #3A2C12",
"9  c #3A331A",
"0  c #2F2C20",
"q  c #393527",
"w  c #3D3C30",
"e  c #41260B",
"r  c #442A0D",
"t  c #4C2D0D",
"y  c #4C310F",
"u  c #53320F",
"i  c #59350F",
"p  c #442E11",
"a  c #453212",
"s  c #4A3616",
"d  c #4D3C1A",
"f  c #543511",
"g  c #5B3610",
"h  c #553B14",
"j  c #5C3B13",
"k  c #563B1B",
"l  c #633C12",
"z  c #683F14",
"x  c #473C24",
"c  c #523E20",
"v  c #4B421F",
"b  c #594118",
"n  c #5D441B",
"m  c #654315",
"M  c #6C4314",
"N  c #664719",
"B  c #6C4B1A",
"V  c #734514",
"C  c #784A17",
"Z  c #7C4A16",
"A  c #744B1B",
"S  c #6E531D",
"D  c #74531D",
"F  c #7C551C",
"G  c #4A442B",
"H  c #584927",
"J  c #564C33",
"K  c #534E34",
"L  c #664A23",
"P  c #724F23",
"I  c #665429",
"U  c #6B532C",
"Y  c #765525",
"T  c #755A22",
"R  c #7B5D22",
"E  c #675A37",
"W  c #755D31",
"Q  c #776127",
"!  c #686334",
"~  c #766337",
"^  c #7A713A",
"/  c #4A4A41",
"(  c #5A5745",
")  c #655F49",
"_  c #68634E",
"`  c #736645",
"'  c #7B6C46",
"]  c #7E714C",
"[  c #787767",
"{  c #834D17",
"}  c #804E18",
"|  c #84531A",
" . c #87551A",
".. c #8C5419",
"X. c #8C5B1C",
"o. c #925619",
"O. c #95591B",
"+. c #9B5C1B",
"@. c #95611E",
"#. c #9C611E",
"$. c #A1631E",
"%. c #835D24",
"&. c #8C5D23",
"*. c #955E21",
"=. c #8A6323",
"-. c #8A6529",
";. c #8C6E2B",
":. c #9B6322",
">. c #936A25",
",. c #956826",
"<. c #9B762C",
"1. c #866937",
"2. c #966C33",
"3. c #87713D",
"4. c #997436",
"5. c #A36622",
"6. c #A56A23",
"7. c #A96C23",
"8. c #A36C2B",
"9. c #A96D29",
"0. c #A47227",
"q. c #AC7224",
"w. c #AC742C",
"e. c #A97828",
"r. c #AC7B2B",
"t. c #B37524",
"y. c #B47926",
"u. c #B37C2A",
"i. c #B97D28",
"p. c #AC7633",
"a. c #A87C38",
"s. c #B27C34",
"d. c #B17B38",
"f. c #896F45",
"g. c #897749",
"h. c #937946",
"j. c #8A7C55",
"k. c #AD812F",
"l. c #B6822E",
"z. c #BB832C",
"x. c #BF892E",
"c. c #A78230",
"v. c #B68734",
"b. c #BC8C33",
"n. c #B4833C",
"m. c #BE9236",
"M. c #C1892F",
"N. c #C28E32",
"B. c #C39335",
"V. c #C9993A",
"C. c #CFA13C",
"Z. c #D1A33E",
"A. c #928846",
"S. c #98865B",
"D. c #A98246",
"F. c #B68946",
"G. c #BA8B44",
"H. c #BA9446",
"J. c #A58E5B",
"K. c #A79557",
"L. c #B09353",
"P. c #B6A857",
"I. c #9E9265",
"U. c #8D8B77",
"Y. c #A79364",
"T. c #BB9E65",
"R. c #B9A669",
"E. c #B7AC69",
"W. c #BBA773",
"Q. c #C1964B",
"!. c #C4994C",
"~. c #C39853",
"^. c #C49B5C",
"/. c #D4AB47",
"(. c #CFAE51",
"). c #C9A459",
"_. c #D4BB59",
"`. c #E1BE53",
"'. c #C9A766",
"]. c #CDAA69",
"[. c #D1AE67",
"{. c #C8B56A",
"}. c #D3B669",
"|. c #C4AC74",
" X c #C6B377",
".X c #CDB375",
"XX c #D5B876",
"oX c #DABD7B",
"OX c #DDC15A",
"+X c #E4C459",
"@X c #D7C766",
"#X c #CDC175",
"$X c #DAC477",
"%X c #DFD37C",
"&X c #E9D268",
"*X c #E9D473",
"=X c #E5D57A",
"-X c #F3E479",
";X c #999683",
":X c #ADAB8D",
">X c #B8B7A1",
",X c #C3B989",
"<X c #CBBF8E",
"1X c #DBC384",
"2X c #DECC85",
"3X c #CFC590",
"4X c #D4C99E",
"5X c #DCD095",
"6X c #E0C685",
"7X c #E2CB8B",
"8X c #E7D881",
"9X c #EAD896",
"0X c #F2E587",
"qX c #F1E297",
"wX c #D1CBA8",
"eX c #CAC9B3",
"rX c #D8D7B5",
"tX c #E3D9A1",
"yX c #F2E7AF",
"uX c #F8F2B9",
"iX c #EBE6CB",
"pX c #F4EAC3",
"aX c #F9F7C7",
"sX c #EBE8D0",
"dX c #F9F6D6",
"fX c #FCFBDB",
"gX c #FCFBE1",
/* pixels */
"                                                                                                                                ",
"                                                                                                                                ",
"                                                                                                                                ",
"                                                                                                                                ",
"                                                          . . X X X .                                                           ",
"                                                O > u Z o.O.O.O.O.O.O.O...l 3 +                                                 ",
"                                          . e C O.+.+.+.+.+.+.O.O.O.+.+.+.+.+.O.{ i +                                           ",
"                                      O g ..+.+.+.+.{ i e 2 , , > , , 3 t M o.+.+.+.O.M -                                       ",
"                                  . h :.$.+.O.M r 3 t M o.+.+.+.+.+.+.O.Z u 3 3 g ..+.#.$.A #                                   ",
"                                5 2.w.5.O.l , g ..+.+.+.+.+.O.....o.+.+.+.+.+.O.M 3 r  .6.w.s.H .                               ",
"                              I G.s.6.z 3 M +.+.+.o.g e = X         . # , t Z +.+.+.| t p a.!.).K.%                             ",
"                          X h.^.G.,.3 P 6.5.+.l -   + e l Z ..o.O.o...Z g 3 O + r o.$.6.&.a 3.$X=X#X9                           ",
"                        @ J.[.Q.Y s a.p.5.l + . t { +.+.+.+.O.....o.+.+.+.+.+.C e . e 8.n.Q.~ E 8X0X=Xq                         ",
"                      X Y.oX'.U I ~.n.&.: O j +.+.O.V t = O O O O O O + - u Z +.+.o.t O ~ }.$XR.G %X0X8X9                       ",
"                    . I.7X.XE ' [.H.P . s 8.5.O.t + = t V { o.O.O.O.o...Z l , > g 5.9.2.5 x %X0X#XG 2XqX5X6                     ",
"                    ` 7X1X` g.oX).c X 1.n.8.g O 3 V o.O.{ z u r 3 3 t g V ..O.{ i > Y !.).~ 6 $X0X#XG tXyXwXo                   ",
"                  q 2X7XS.` 7X.XG $ L.Q.2.; 2 | #.{ u = .                 + 3 V +.*.k c XX8XK.< #XqX:X( pXdX;X                  ",
"                X R.7X|.K 7X1XJ % W.].1.$ U p.*.t O                             > Y G.D.G {.0XE.6 4XpX;XU.fXgX/                 ",
"                E 1X1XG .X7Xg.X W.oX~ % h.G.P #                                   . H {.$XE E.qXI.w iXdX_ eXgXrX.               ",
"              $ '.$Xj.j.7XW.. S.7XS.* J.).L .                                         9 {.=XE ,XpX[ [ gXsX/ dXfX[               ",
"              W }..Xx XX1X7 J 7XW.% I..XH                                               6  X5X_ iXdXq eXfX;X:XdXrXo             ",
"            X F.[.' h.XXg.$ .X1X6 ] 1XE .                                                 0 4XwX[ gXeXq dXaXK aXaX(             ",
"            d Q.).a ).}.* ~ $X' x <XS.X                                                     / sX:X>XfX_ :XaXU.:XuX,X            ",
"            -.H.1.Y ~.3.X ).].$ J.|.6                                                       . U.dX[ aXwXw uXtXK yX9X6           ",
"          + w.v.d a.Q.7 L ).I c [.E                                                           6 rX<X:XuXG 3X9XE 1X$XJ           ",
"          2 w.s.a s.n.. 4.Q.% 4.L.%                                                             [ uX[ yXI.` $Xg.f.).1.          ",
"          j 7.&.g w.N = s.-.; n.U                                                               6 5X] oX].5 ).a.s G.p.          ",
"          } 5.j C 7.4 r w.h 2 s.1                                                                 S.' ~ Q.8 n.p.2 w.9.=         ",
"          +.#.4 O.$.= M 6.# e =.X                                                                 H W k s.y &.6.r :.5.3         ",
"        . +.+., +.+.X | #.. e M                                                                   > m : 5.f l $.t ..+.r         ",
"        O +.+.> +.O.  o.O.  3 u                                                                   + f   +.l t +.t { +.t         ",
"        O +.O.> +...  O...  3 e                                                                   X r   O.M e +.u V +.t         ",
"        + +.O.> +...  O.|   3 3                                                                   . e   O.V e +.u V +.u         ",
"        O +.+., +.O.  O.o.  3 3                                                                   . r   +.V r $.g Z $.u         ",
"        X $.$., $.6.. O.6.  e y                                                                   O y . 6.m g 6.g  .6.y         ",
"        . 5.q.4 6.y.# X.u.X p B                                                                   # b > y.b C y.h #.q.a         ",
"          :.u.h ,.N.8 D V.1 s 4..                                                                 4 D h B.b 0.N.a q.x.2         ",
"          R B.;.T /.I v _.~ d (.&                                                                 S R R C.a B.B.2 b.B.O         ",
"          b /.(.H OXP.: &XP.9 *XH                                                               X c.T V.m.a C.<.n V.v.          ",
"          5 OX&XH &X-X& {.-X9 @XK..                                                             4 B.=.V.Q ;.Z.T c.Z.T           ",
"          X @X-Xg.P.-XE ^ -X^ A.OX7                                                             %.e.e.N.4 B.V.8 C.C.8           ",
"            A.-X@X! -X_.o @X(.9 !.-..                                                         2 q. .x.=.n B.,.N V.b.X           ",
"            7 -X-XH _.+Xd T Z.D S y.4                                                       O X.#.:.t.4 r.z.r k.N.D             ",
"              P.&XH.Q /.l.O r.t.4  ...#                                                     m q. .t. .m i.@.h M.u.#             ",
"              v `./.s k.z.j 2 6..., o.Z +                                                 f q.X.q.t.2 q.t.3 6.i.|               ",
"                a.V.0.a q.$.- g +.V r o.V +                                             f e.>.6.y.r X.t.F m y.q.#               ",
"                1 z.t.j m $...O V +.V r o.Z -                                       X N u.>.6.z.N M t.6.2 q.t.M                 ",
"                  j 7.$.3 { +.{ O Z +.C r ....t O                                 2 =.v.>.e.x.D h y.i.4 @.t.:..                 ",
"                  . | $.o.> ..+.Z + V +...t V :.&.d %                       . > D k.k.-.u.b.S h u.z.f C t.y.2                   ",
"                    + o.+...> ..+.{ # u +.+.M f 2.^.T.j.J 5 $ X . . X # > h X.r.r.-.<.b.m.s B z.x.h m y.i.h                     ",
"                      - O.+.{ - { +.o.3 -  .9.p.1.E S. XXX^.a.-.| |  .#.q.0.>.%.>.l.b.<.2 =.x.N.h m u.z.D                       ",
"                        , O.+..., M +.+.V + d D.].oX Xj.f.U n z l l l B F F 0.u.b.<.s h r.b.v.8 A l.x.F                         ",
"                          > O.+.O.r r +.5.8.P : G Y.<XoX].~.d.8.:.#.$.6.q.y.r.R 8 f <.b.m.;.2 >.x.N.D                           ",
"                            = ..+.O.V > A d.H.^.J.E < x H L P C Z C M j h 4 2 B 0.l.b.c.a b r.b.B.n                             ",
"                              O z +.+.*.j 8 f..X6X7X1X'.h.U d p 4 r f M X.6.q.u.v.<.s a ,.v.B.k.8                               ",
"                                  4 &.9.p.D.W x ) Y.'.'.~.n.p.9.5.5.6.7.q.e.,.B 2 y ,.l.b.m.Q X                                 ",
"                                    . N D.^.[.XX|.] x 9 k j j j g j j j e : y | q.u.v.b.;.:                                     ",
"                                        @ J |.7X7X6XoX'.L.4.%.Y A C | X.#.7.q.y.l.v.T :                                         ",
"                                            . q ` Y.'.~.F.d.w.6.5.5.6.7.q.y.0.D a O                                             ",
"                                                    X 5 s f j g g j g y 4 #                                                     ",
"                                                                                                                                ",
"                                                                                                                                ",
"                                                                                                                                ",
"                                                                                                                                "
};
