/* XPM */
static char *_5520dd7af2c4e5292ed04f617e4a1a4mfetrnAYeoY5lixh[] = {
/* columns rows colors chars-per-pixel */
"64 64 124 2 ",
"   c #9F1A1F",
".  c #9E1D23",
"X  c #BE1F26",
"o  c #9C2127",
"O  c #9C262B",
"+  c #9B292E",
"@  c #BE2128",
"#  c #BB282E",
"$  c #BB2D33",
"%  c #BF3036",
"&  c #BD3339",
"*  c #C42027",
"=  c #C62329",
"-  c #C82128",
";  c #C3282F",
":  c #C9282F",
">  c #C52B32",
",  c #C92C33",
"<  c #C53137",
"1  c #CB3137",
"2  c #C4343A",
"3  c #CD373E",
"4  c #C6383E",
"5  c #CB383F",
"6  c #C73D43",
"7  c #CC3C42",
"8  c #CB4147",
"9  c #C64349",
"0  c #CC4449",
"q  c #CC484E",
"w  c #D0454B",
"e  c #D0484D",
"r  c #CE4C52",
"t  c #D24D52",
"y  c #CC5157",
"u  c #CD565B",
"i  c #CE595E",
"p  c #D25157",
"a  c #D45359",
"s  c #D4595E",
"d  c #CE5E63",
"f  c #D55C62",
"g  c #CD6064",
"h  c #CF6469",
"j  c #D46166",
"k  c #D46569",
"l  c #D8676C",
"z  c #D6696D",
"x  c #D96A6E",
"c  c #D56D72",
"v  c #D96E73",
"b  c #D77276",
"n  c #DA7176",
"m  c #D4767A",
"M  c #DB7579",
"N  c #DC797E",
"B  c #D77D81",
"V  c #DC7E82",
"C  c #DD8286",
"Z  c #DC8589",
"A  c #DC8D90",
"S  c #DF9395",
"D  c #DE9699",
"F  c #E0868A",
"G  c #E18A8E",
"H  c #E18D91",
"J  c #E39496",
"K  c #E39699",
"L  c #E4999C",
"P  c #E6A2A5",
"I  c #E6A6A9",
"U  c #E8A7AA",
"Y  c #E5AAAD",
"T  c #E9AAAD",
"R  c #E7AFB1",
"E  c #EAAEB1",
"W  c #E5B2B4",
"Q  c #EBB2B5",
"!  c #E6B7B9",
"~  c #EBB6B8",
"^  c #E5BCBD",
"/  c #ECBABD",
"(  c #EEBFC1",
")  c #E7C4C6",
"_  c #EEC2C4",
"`  c #EEC7C8",
"'  c #ECCBCC",
"]  c #F0C7C8",
"[  c #F1CBCD",
"{  c #F1CFD1",
"}  c #EDD4D5",
"|  c #EFD7D8",
" . c #EEDDDD",
".. c #F3D3D4",
"X. c #F3D7D8",
"o. c #F3DADB",
"O. c #F4D8DA",
"+. c #F5DBDD",
"@. c #F5DCDE",
"#. c #F4DEDF",
"$. c #F4DFE0",
"%. c #EFEAEA",
"&. c #F1E5E5",
"*. c #F2E7E7",
"=. c #F7E4E4",
"-. c #F8E5E6",
";. c #F3E7E8",
":. c #F8E7E8",
">. c #F5E8E8",
",. c #F7EAEB",
"<. c #F5EBEC",
"1. c #F3EEEE",
"2. c #F9EBEB",
"3. c #FAEFEF",
"4. c #F7F0F0",
"5. c #F6F6F6",
"6. c #FBF2F2",
"7. c #FBF6F6",
"8. c #FCF4F4",
"9. c #FDF7F8",
"0. c #F9F9F9",
"q. c #FDFBFB",
"w. c gray99",
"e. c white",
/* pixels */
"  - - - c >.e.e.e.e.e.e.5.e.e.e.e.e.e.e.5.e.e.e.e.e.e.0.0.e.e.e.e.e.e.0.0.e.e.e.e.e.e.5.e.e.e.e.e.e.e.5.0.e.e.e.e.e.1.C = - - X ",
"  - - y 4.e.3.L f a a a p i a a a a s u p a a a a a a a y f a a a a f y p a a a a a a p u s p p a a i p a a a s H 2.e.7.k - - * ",
"  - > P e.2.t - - - - - - - > = - : > - - - - - - - - - - - > - - > : - - - - - - - - - - ; : - - > - - - - - - - 7 O.e.Q > - * ",
"o > * _ e.M - - - - - - - - - > : > - - - - - - - - - - - - - > > = - - - - - - - - - - - - ; , > - - - - - - - - - l e.O.- > > ",
"+ > - ] 8.7 - - - - - - - - - : 2 = - - - - - - - - - - - - - > > - - - - - - - - - - - - - - 2 : - - - - - - - - - , 8.@.- > & ",
"  ; > ] 3.3 - - - - - - - - : > - > = - - - - - - - - - - - > = = > - - - - - - - - - - - - > - ; : - - - - - - - - : 3.@.: ; * ",
"  - ; ' 3.3 - - - - - - 3 t y t t e y t t t t t t t t t t y r t t 4 > - - - - - - - - - - > - - - ; : - - - - - - - : 3.@.; - * ",
"  - - ^ >.3 - - - - - - J 5.e.e.e.e.e.5.e.e.e.e.e.e.e.e.0.5.e.e.e.L > 0 , - - - - - - - > - - - - - ; : - - - - - - : >.} - - * ",
"  - - ] *.7 - - - - - : D e.e.=.G f s s d f s s s s s j u s s N 9.+.:.6.>.L , - - - - > - - - - - - - ; : - - - - - , *.@.- - * ",
"  - - ] 3.6 > - - - : > J e.e.e.q.[ N , - > = - - - > = - - - t 8.e.e.e.0.7.E : - = > - - - - - - - - - ; : - - - > > 3.@.- - * ",
"  - - ] 3.3 ; > - : > - J e.e.e.e.e.e.3.H 7 > = - > = - - - - t 8.e.e.e.e.0.4.a - > - - - - - - - - - - - ; : - : ; : 3.@.- - * ",
"  - - ] 3.3 - ; < > - - J e.e.e.e.e.e.e.e.6.~ k < ; - - - - - f q.e.e.e.e.e.0.B > - - - - - - - - - - - - - ; < ; - : 3.@.- - * ",
"  - - ] 3.3 - : < > - - J e.e.e.e.e.e.e.e.e.e.0.) n , - - - - a q.e.e.e.e.e.e.m > - - - - - - - - - - - - - : % : - : 3.@.- - * ",
"  - - ] 3.3 : > - ; > - J e.e.e.e.e.e.e.e.e.0.0.e.1.t - - - - t 8.e.e.e.e.e. .4 - > - - - - - - - - - - - > ; - ; : : 3.@.- - * ",
"  - - ] 3.7 > - - - ; > J e.e.e.e.e.e.e.e.0.0.e.e.7.u : - - - t 8.e.e.e.e.*.j - - * > - - - - - - - - - : ; - - - ; , 3.@.- - * ",
"  - - ] 3.6 - - - - - ; L e.e.e.e.e.e.e.0.0.e.e.e.9.t > = - - t 8.I N P Z t k n 7 - - > - - - - - - - > ; - - - - - > 3.@.- - * ",
"  - - ` *.3 - - - - - - A 0.e.e.e.e.e.0.0.e.e.e.e.9.t - > = - t 8.L = 6 P 6.e.e.6.~ G z q = - - - - > ; - - - - - - : *.o.- - * ",
"  - : ) 3.3 - - - - - - J 5.0.e.e.e.0.0.e.e.e.e.e.9.t - - > = t 7.L > P e.e.e.e.e.e.e.e.7.o.p - - > ; - - - - - - - : 3.} : - * ",
"  : > ` 3.3 - - - - - - J e.5.0.e.0.0.e.e.e.e.e.e.9.t - - - > p 7.D : [ e.e.e.e.e.e.e.e.e.0.U - > ; - - - - - - - - : 3.@.; : * ",
"+ > - ] 3.3 - - - - - - J e.e.5.5.0.e.e.e.e.e.e.e.9.t a H f 3 u 1.K = ] e.e.e.e.e.e.( ] q.e.@.6 ; - - - - - - - - - : 3.@.- > < ",
"o > - ] 3.3 - - - - - - J e.e.0.4.0.e.e.e.e.e.e.e.9.f $.e.e.2.' 4.K e =.e.e.e.e.e.e.N , X.e.6.y > - - - - - - - - - : 3.@.- > # ",
"  - > ] 3.3 - - - - - - J e.0.0.e.5.0.e.e.e.e.e.e.9.s ..e.e.5.e.e.1.3.e.e.e.e.e.e.e.L - T 0.5.C - > - - - - - - - - : 3.@.> - * ",
"  - - ) 3.3 - - - - - - J 0.0.e.e.e.5.0.e.e.e.e.e.9.t 7 Z ' 0.e.e.e.5.e.e.e.e.e.e.e.Q - M 4.e./ - - > - - - - - - - : 3.| - - * ",
"  - - _ *.3 - - - - - - S 0.e.e.e.e.e.5.0.e.e.e.e.9.t = > - w J q.e.e.4.e.e.e.e.e.e._ , y 8.e.@.1 - - > - - - - - - : ;.o.- - * ",
"  - - ] >.0 - - - - - > D e.e.e.e.e.e.e.5.0.e.e.e.9.t > - - - t 8.I k k *.e.e.e.e.e...< , +.e.8.t - - - > - - - - - < >.@.- - * ",
"  - - ] 3.5 > - - - > ; J e.e.e.e.e.e.e.e.5.0.e.e.8.u - - - - t 8.L - , X.5.e.e.e.0.' , - P e.6.e - - - - > - - - > : 3.@.- - * ",
"  - - ] 3.3 - > - > = - J e.e.e.e.e.e.e.e.e.5.0.e.1.t - - - - t 8.L - : / e.5.e.e.5.X., - , C j - - - - - * > - > - : 3.@.- - * ",
"  - - ] 3.3 - - 2 : - - J e.e.e.e.e.e.e.e.e.e.5.4.7.t - - - - t 8.L - - H e.e.5.5.e.=.7 - - - - - - - - - - = 4 - - : 3.@.- - * ",
"  - - ] 3.3 - > = > - - J e.e.e.e.e.e.e.e.e.e.5.e.9.t - - - - t 8.L - e ..e.e.e.5.e.e.[ 7 - - - - - - - - - > = > - : 3.@.- - * ",
"  - - ] 3.3 > = - - > - J e.e.e.e.e.e.e.e.e.5.e.e.9.t - - - - t 8.L j =.e.e.e.e.q.5.e.e...7 , p C U [ O.Z > - - - > : 3.@.- - * ",
"  - - ] 3.8 : - - - - > K e.e.e.e.e.e.e.e.5.e.e.e.q.k : - - - t 8.O.6.e.e.e.-.k s =.5.e.e.6.q.e.e.e.e.e.>.8 - - - - < 3.@.- - * ",
"  - - ] >.4 - - - - - - D e.e.e.e.e.e.e.5.e.e.e.e.%.d j - - - t 8.e.e.e.e...0 - - p =.5.e.e.e.e.e.e.e.5.=.7 - - - - : >.@.- - * ",
"  - - ) *.3 - - - - - - J 5.e.e.e.e.e.5.e.e.e.e.4.4.a c : - - t 8.e.e.e.~ 3 - - - - t =.5.e.e.e.e.8.} R j - - - - - : >.| - - * ",
"  - > ` 3.3 - - - - - - J 0.5.e.e.e.5.e.e.e.e.0.5.9.n 9 - - - t 8.e.e.( , : - - - - - q / ^ P M t < - - - - - - - - : 3.o.> - * ",
". > ; ] 3.3 - - - - - - J e.e.5.e.5.e.e.e.e.e.5.e.9.t - , w , t 8.e.e.P 7 k 8 , w , - - - - > : > - - - - - - - - - : 3.@.- > = ",
"+ > - ] 3.3 - - - - - - J e.e.0.4.e.e.e.e.e.e.5.e.e.~ I ^ ! ! / 4.5.4.Q u N u d 9 u - - - - - 2 : - - - - - - - - - : 3.@.- : & ",
". ; , ] 3.3 - - - - - - J e.e.5.0.5.e.e.e.e.e.5.e.e.e.e.4.e.4.e.4.0.4.P 7 k c 9 t 6 - - - - > - > : - - - - - - - - : 3.@.: > @ ",
"  - ; ' 3.3 - - - - - - - : > : s Y *.e.e.e.e.0.e.q.v k k M h W 5.0.*.C g > q j b 2 - - - > - - - > - - - - - - - - : 3.@.> - * ",
"  - - ^ 2.3 - - - - - - - > - - - - 4 A 2.e.e.0.0.1.d - : : ; U e.e.$.5 - - - : 1 4 - - > - - - - - > : - - - - - - : 3.} - - * ",
"  - - ] *.7 - - - - - = > - - - - - - - 4 n ` q.0.7.t - - - : _ e.e...: - - - - - - - > - - - - - - - > : - - - - - , *.+.- - * ",
"  - - ] 3.6 : - - - - > - - - - - - - - - > : t Q 2.t - - - - E e.e.T - - - - - - - > - - - - - - - - - > = - - - : > 3.@.- - * ",
"  - - ] 3.3 ; : - - > - - - - - - - - - - - > - - 7 , - - - - 3 K K 7 - - - - - - > - - - - - - - - - - - > : - : > : 3.@.- - * ",
"  - - ] 3.3 - ; > > - - - - - - - - - - - - - > - - - - - - - - - - - - - - - - > - - - - - - - - - - - - - > , > - : 3.@.- - * ",
"  - - ] 3.3 - - 2 > - - - - - - - - - - - - - > < - - - - - - - - - - - - - - > > - - - - - - - - - - - - - : & : - : 3.@.- - * ",
"  - - ] 3.3 - > - ; : - - - - - - - - - - - > ; - > - - - - - - - - - - - - > - = > - - - - - - - - - - - : > - > = : 3.@.- - * ",
"  - - ] 3.3 > - - - ; : - - - - - - - - - > ; - - - > - - - - - - - - - - > - - - ; > - - - - - - - - - : > - - - > , 3.@.- - * ",
"  - - ] 3.0 - - - - - ; : - - - - - - - > ; - - - - - > - - - - - - - - > - - - - - ; > - - - - - - - : > - - - - - > 3.@.- - * ",
"  - - ] *.5 - - - - - - ; : - - P ....{ ' ....C - C { ' i - - p [ { V > q [ { k - G ..' ' ......{ x : > - - - - - - : *.+.- - * ",
"  - = ) >.3 - - - - - - - ; : - _ e.0.5.e.e.e.L - s q.e.P > = I e.8.j - t q.e.M - P e.e.5.0.e.e.e.C > - - - - - - - : 3.} : - * ",
"  - > ` 3.3 - - - - - - - - ; : _ 0.<.X.X.X.X.C - , ..e.@.1 8 =.e.' > - t q.e.M - H X.O.8.5.1.X.O.c - - - - - - - - : 3.@.> - * ",
"O > - ] 3.3 - - - - - - - - - ; ) 5.[ : - - - - - - V e.q.j k 4.5.M - - t q.e.M - - - : ..e.W < > - - - - - - - - - : 3.@.- > > ",
"O > - ] 3.3 - - - - - - - - - > ^ e.[ : - - - - - - 7 -.e.T E 5. .7 - - t q.e.M - - - : ..e.~ > > - - - - - - - - - : 3.@.- > $ ",
"  - > ] 3.3 - - - - - - - - > ; _ 5.' : - - - - - - - T e.6.1.0.I > - - t q.e.M - - - : ..e.Y - ; > - - - - - - - - : 3.@.> - * ",
"  - - ` 3.3 - - - - - - - > ; - _ e.' , - - - - - - - f q.5.0.q.f - > - t q.e.M - - - : ..5.Q - - ; > - - - - - - - : 3.o.= - * ",
"  - - ) *.3 - - - - - - > ; - - _ e.2.Y U U w - - - - , ' 0.e.{ , - - > t q.e.M - - - , ' e.Q - - - = > - - - - - - : >.| - - * ",
"  - - ] >.8 - - - - - > ; - - - _ e.e.e.5.7.f - - - - > A e.e.G - - - - u q.e.M - - : < ..e.Q - - - - ; > - - - - - < *.@.- - * ",
"  - - ] 3.5 > - - - > ; - - - - _ e.q.3.3. .s - - - > : / e.e./ : - - - r 4.e.M - : > : ..e.Q - - - - - = > - - - > > 3.@.- - * ",
"  - - ] 3.3 - > - > ; - - - - - _ e...3 1 1 > : - > - t 8.e.e.6.e - - - t 7.5.M : > - : ..e.Q - - - - - - ; > - > = : 3.@.- - * ",
"  - - ] 3.3 - - 2 > - - - - - - _ e.[ : - - - ; < - - J e.q.q.e.H - - - t q.0.B > - - : ..e.Q - - - - - - - ; 2 = - : 3.@.- - * ",
"  - - ] 3.3 - > ; > - - - - - - _ e.[ : - - - > ; : , X.e./ ( e..., - - t q.q.m > - - : ..e.Q - - - - - - - > ; > - : 3.@.- - * ",
"  - - ] 3.3 > ; - - > - - - - - _ e.[ : - - > - - ; z q.q.v n q.q.j - - t 7.4.n - > - : ..e.Q - - - - - - > = - ; > : 3.@.- - * ",
"  - - ] 3.0 ; - - - - > - - - - _ e.=.F C Z Z s - - W e.-.3 7 2.e.Q = - t 4.e.M - - > , ..e.Q - - - - - > = - - - = < 3.@.- - * ",
"  - - ] >.6 - - - - - - > - - - _ e.e.e.5.0.e.L - w 3.5.Y = = Q e.2.8 : u q.e.M - - - < X.e.Q - - - - > = - - - - - > >.@.- - * ",
"  - - _ *.3 - - - - - - - > - - / q.q.4.7.q.q.K - C 8.7.j : - j 7.8.C > t 8.8.n - - - : ' q.E - - - > = - - - - - - : *.X.- - * "
};
