/* XPM */
static char *a9a62fd328064010eba01236fdc122c7fTUiNzgT0IqZWtD4[] = {
/* columns rows colors chars-per-pixel */
"64 64 2 1 ",
"  c black",
". c #1525C4",
/* pixels */
"            ............                          ............  ",
"            ............                          ............  ",
"            ............                          ............  ",
"            ............                          ............  ",
"            ............                          ............  ",
"            ............                          ............  ",
"            ............                          ............  ",
"            ............                          ............  ",
"            ............                          ............  ",
"            ............                          ............  ",
"            ............                          ............  ",
"            ............                          ............  ",
"            ............                          ............  ",
"            ............                          ............  ",
"            ............                          ............  ",
"            ............                          ............  ",
"            ............                          ............  ",
"            ............                          ............  ",
"            ............                          ............  ",
"            ............                          ............  ",
"            ............                          ............  ",
"            ............                          ............  ",
"            ............                          ............  ",
"            ............                          ............  ",
"            ............                          ............  ",
"            ............                          ............  ",
"            ............                          ............  ",
"            ............                          ............  ",
"            ............                          ............  ",
"            ............                          ............  ",
"            ............                          ............  ",
"            ............                          ............  ",
"            ............                          ............  ",
"            ............                          ............  ",
"            ............                          ............  ",
"            ............                          ............  ",
"            ............                          ............  ",
"            ............                          ............  ",
"            ............                          ............  ",
"            ............                          ............  ",
"            ............                          ............  ",
"            ............                          ............  ",
"            ............                          ............  ",
"            ............                          ............  ",
"            ............                          ............  ",
"            ............                          ............  ",
"            ............                          ............  ",
"            ............                          ............  ",
"            ............                          ............  ",
"            ............                          ............  ",
"            ............                          ............  ",
"            ............                          ............  ",
"            ............                          ............  ",
"            ............                          ............  ",
"            ............                          ............  ",
"            ............                          ............  ",
"            ............                          ............  ",
"            ............                          ............  ",
"            ............                          ............  ",
"            ............                          ............  ",
"            ............                          ............  ",
"            ............                          ............  ",
"            ............                          ............  ",
"            ............                          ............  "
};
