/* XPM */
static char *_231709878692[] = {
/* columns rows colors chars-per-pixel */
"64 64 33 1 ",
"  c black",
". c #000103",
"X c #031630",
"o c #031835",
"O c #031935",
"+ c #031937",
"@ c #031B3B",
"# c #041B3A",
"$ c #052651",
"% c #052653",
"& c #052856",
"* c #052959",
"= c #062B5D",
"- c #062E62",
"; c #062E64",
": c #063068",
"> c #07316A",
", c #07326B",
"< c #06326C",
"1 c #07336D",
"2 c #073572",
"3 c #073777",
"4 c #083C80",
"5 c #083D84",
"6 c #083E86",
"7 c #09408A",
"8 c #09418B",
"9 c #09418C",
"0 c #094492",
"q c #094595",
"w c #0A489A",
"e c #0C56B8",
"r c #0C57BB",
/* pixels */
"rrrrrrrrrrrrrrrrrrrrrrrrrrrrrrrrrrrrrrrrrrrrrrrrrrrrrrrrrrrrrrrr",
"rrrrrrrrrrrrrrrrrrrrrrrrrrrrrrrrrrrrrrrrrrrrrrrrrrrrrrrrrrrrrrrr",
"rrrrrrrrrrrrrrrrrrrrrrrrrrrrrrrrrrrrrrrrrrrrrrrrrrrrrrrrrrrrrrrr",
"rrrrrrrrrrrrrrrrrrrrrrrrrrrrrrrrrrrrrrrrrrrrrrrrrrrrrrrrrrrrrrrr",
"rrrr                                                        rrrr",
"rrrr                                                        rrrr",
"rrrr                                                        rrrr",
"rrrr                                                        rrrr",
"rrrr                                                        rrrr",
"rrrr     ;99544444444444444444444444444444444444444599;     rrrr",
"rrrr     9rrrrrrrrrrrrrrrrrrrrrrrrrrrrrrrrrrrrrrrrrrrr9     rrrr",
"rrrr     9rrrrrrrrrrrrrrrrrrrrrrrrrrrrrrrrrrrrrrrrrrrr9     rrrr",
"rrrr     5rr-######################################-rr5     rrrr",
"rrrr     4rr#                                      #rr4     rrrr",
"rrrr     4rr#                                      #rr4     rrrr",
"rrrr     4rr#                                      #rr4     rrrr",
"rrrr     4rr#    &,,,,,,,,,:,:,,,,:,:,,,,:,,,<%    #rr4     rrrr",
"rrrr     4rr#    wrrrreerrrrrrrrrrrrrrrrrrrrrrq    #rr4     rrrr",
"rrrr     4rr#    0r<%%%%%%%%$%%%$$%%$$%%$$%%,r9    #rr4     rrrr",
"rrrr     4rr#    8rX                        #r5    #rr4     rrrr",
"rrrr     4rr#    8rX                        or6    #rr4     rrrr",
"rrrr     4rr#    8rX                        or6    #rr4     rrrr",
"rrrr     4rr#    8rX                        or6    #rr4     rrrr",
"rrrr     4rr#    8rX    =,,,;,;,,,;,,;,2    #r6    #rr4     rrrr",
"rrrr     4rr#    8rX    q<%%%%%%%%%%%%%r.   #e5    #rr4     rrrr",
"rrrr     4rr#    8rX    8X             r.   #r5    #rr4     rrrr",
"rrrr     4rr#    8rX    9X             r.   or6    #rr4     rrrr",
"rrrr     4rr#    8rX    9X             r.   oe6    #rr4     rrrr",
"rrrr     4rr#    8rX    8X   #=====    r.   #r5    #rr4     rrrr",
"rrrr     4rr#    8rX    8X   3rrrrr.   r.   #r5    #rr4     rrrr",
"rrrr     4rr#    8rX    8X   3rrrrr    r    or5    #rr4     rrrr",
"rrrr     4rr#    8rX    8X   3rrrrr    r    or5    #rr4     rrrr",
"rrrr     4rr#    8rX    9X   3rrrrr    r.   #e5    @rr4     rrrr",
"rrrr     4rr#    8rX    8X   #====;    r.   #r5    @rr4     rrrr",
"rrrr     4rr#    8rX    8X             r.   or6    @rr4     rrrr",
"rrrr     4rr#    8ro    8X             r.   oe6    #rr4     rrrr",
"rrrr     4rr#    8rX    8X             r.   #r6    #rr4     rrrr",
"rrrr     4rr#    8rX    8X             r.   #r6    #rr4     rrrr",
"rrrr     4rr#    8rX    0*o#++++++#+#@+r    or5    #rr4     rrrr",
"rrrr     4rr#    8rX   .385555555555563w    or5    #rr4     rrrr",
"rrrr     4rr#    8rX                        +r4    #rr4     rrrr",
"rrrr     4rr#    8rX                        +r5    #rr4     rrrr",
"rrrr     4rr#    8rX                        +r5    #rr4     rrrr",
"rrrr     4rr#    8rX                        +r5    #rr4     rrrr",
"rrrr     4rr#    0r&o#oo+++++++#+++++O++++++*r8    #rr4     rrrr",
"rrrr     4rr#    wrrrrrrrrrrrrrrrrrrrrrrrrrrrrq    #rr4     rrrr",
"rrrr     4rr#    3q88555855558555558455855588q2    #rr4     rrrr",
"rrrr     4rr#                                      #rr4     rrrr",
"rrrr     4rr#                                      #rr4     rrrr",
"rrrr     4rr#                                      #rr4     rrrr",
"rrrr     4rr#                                      #rr4     rrrr",
"rrrr     5rr-######################################-rr5     rrrr",
"rrrr     9rrrrrrrrrrrrrrrrrrrrrrrrrrrrrrrrrrrrrrrrrrrr9     rrrr",
"rrrr     9rrrrrrrrrrrrrrrrrrrrrrrrrrrrrrrrrrrrrrrrrrrr9     rrrr",
"rrrr     ;99544444444444444444444444444444444444444599;     rrrr",
"rrrr                                                        rrrr",
"rrrr                                                        rrrr",
"rrrr                                                        rrrr",
"rrrr                                                        rrrr",
"rrrr                                                        rrrr",
"rrrrrrrrrrrrrrrrrrrrrrrrrrrrrrrrrrrrrrrrrrrrrrrrrrrrrrrrrrrrrrrr",
"rrrrrrrrrrrrrrrrrrrrrrrrrrrrrrrrrrrrrrrrrrrrrrrrrrrrrrrrrrrrrrrr",
"rrrrrrrrrrrrrrrrrrrrrrrrrrrrrrrrrrrrrrrrrrrrrrrrrrrrrrrrrrrrrrrr",
"rrrrrrrrrrrrrrrrrrrrrrrrrrrrrrrrrrrrrrrrrrrrrrrrrrrrrrrrrrrrrrrr"
};
