/* XPM */
static char *_1710085555[] = {
/* columns rows colors chars-per-pixel */
"64 64 8 1 ",
"  c black",
". c #000100",
"X c #000201",
"o c #00FF55",
"O c #000001",
"+ c #000003",
"@ c #000006",
"# c #000002",
/* pixels */
"                                                                ",
"                                                                ",
"                                                                ",
"                                                                ",
"                                                                ",
"                                                                ",
"                                                                ",
"                                                                ",
"                                                                ",
"                                                                ",
"                                                                ",
"                                                                ",
"                                                                ",
"                                                     .          ",
"                                                     X.         ",
"                                                                ",
"                                                                ",
"                                                                ",
"                                                                ",
"                                                                ",
"                                                                ",
"                                                                ",
"                                                                ",
"                        ooooooooooooooooo                       ",
"                        ooooooooooooooooo                       ",
"                        ooooooooooooooooo                       ",
"                        ooooooooooooooooo                       ",
"                        ooooooooooooooooo                       ",
"                        ooooooooooooooooo                       ",
"                        ooooooooooooooooo                       ",
"                        ooooooooooooooooo                       ",
"                        ooooooooooooooooo                       ",
"                        ooooooooooooooooo                       ",
"                        ooooooooooooooooo                       ",
"                        ooooooooooooooooo                       ",
"                        ooooooooooooooooo                       ",
"                        ooooooooooooooooo                       ",
"                        ooooooooooooooooo                       ",
"                        ooooooooooooooooo                       ",
"                        ooooooooooooooooo                       ",
"                                                                ",
"                                                                ",
"                                                                ",
"                                                                ",
"        O                                                       ",
"     O+@O                                                       ",
"     O#@O                                                       ",
"     O#@O  .                                                    ",
"      O+O  .                                                    ",
"                                                                ",
"                                                                ",
"                                                                ",
"                                                                ",
"                                                                ",
"                                                                ",
"                                                                ",
"                                                                ",
"                                                                ",
"                                                                ",
"                                                                ",
"                                                                ",
"                                                                ",
"                                                                ",
"                                                                "
};
