/* XPM */
static char *cb40b0d61fe9458ae989d943944aa2b1ICB0E3cYTddW9NZR[] = {
/* columns rows colors chars-per-pixel */
"64 64 66 1 ",
"  c black",
". c #020401",
"X c #040702",
"o c #040802",
"O c #060C03",
"+ c #070D04",
"@ c #080F04",
"# c #091105",
"$ c #0B1507",
"% c #0C1607",
"& c #0D1807",
"* c #0E1B08",
"= c #0F1C09",
"- c #101F0A",
"; c #13230B",
": c #13240B",
"> c #14260C",
", c #162A0D",
"< c #192E0F",
"1 c #1A310F",
"2 c #1C3310",
"3 c #1E3711",
"4 c #1E3812",
"5 c #203B13",
"6 c #203C13",
"7 c #223F14",
"8 c #244215",
"9 c #254616",
"0 c #274917",
"q c #284B18",
"w c #294D19",
"e c #2B501A",
"r c #2D531B",
"t c #305A1D",
"y c #335E1E",
"u c #345F1F",
"i c #366320",
"p c #366520",
"a c #396A22",
"s c #3B6E23",
"d c #3C6F24",
"f c #3E7225",
"g c #3F7425",
"h c #407726",
"j c #417827",
"k c #437B28",
"l c #437C28",
"z c #457F29",
"x c #46822A",
"c c #47842A",
"v c #48862B",
"b c #4A892C",
"n c #4C8D2D",
"m c #4E902E",
"M c #519630",
"N c #539A32",
"B c #569F33",
"V c #57A034",
"C c #58A335",
"Z c #59A435",
"A c #5BA936",
"S c #5CAB37",
"D c #5DAC37",
"F c #5EAF38",
"G c #5FB139",
"H c #61B33A",
/* pixels */
"                                                                ",
"                                                                ",
"                         +<wpjvvzfay9;                          ",
"                     o3aMHHHHHHHHHHHHHFmy;                      ",
"                   -aSHHHHHHHHHHHHHHHHHHHHn9.                   ",
"                 -jHHHHHHHHHHHHHHHHHHHHHHHHHVeX                 ",
"               +aHHHHHHHHHHHHHHHHHHHHHHHHHHHHHZq                ",
"              4ZHHHHHHHHHHHHHHHHHHHHHHHHHHHHHHHHv%              ",
"            .aHHHHHHHHHHHHHHHHHHHHHHHHHHHHHHHHHHHA7             ",
"           #nHHHHHHHHHHHHHHHHHHHHHHHHHHHHHHHHHHHHHHy            ",
"          &NHHHHHHHHHHHHHHHHHHHHHHHHHHHHHHHHHHHHHHHHd           ",
"         #BHHHHHHHHHHHHHHHHHHHHHHHHHHHHHHHHHHHHHHHHHHa          ",
"        omHHHHHHHHHHHHHHHHHHHHHHHHHHHHHHHHHHHHHHHHHHHHy         ",
"        hHHHHHHHHHHHHHHHHHHHHHHHHHHHHHHHHHHHHHHHHHHHHHH9        ",
"       eHHHHHHHHHHHHHHHHHHHHHHHHHHHHHHHHHHHHHHHHHHHHHHHF;       ",
"      ;FHHHHHHHHHHHHHHHHHHHHHHHHHHHHHHHHHHHHHHHHHHHHHHHHN.      ",
"      MHHHHHHHHHHHHHHHHHHHHHHHHHHHHHHHHHHHHHHHHHHHHHHHHHHy      ",
"     qHHHHHHHHHHHHHHHHHHHHHHHHHHHHHHHHHHHHHHHHHHHHHHHHHHHF*     ",
"    XZHHHHHHHHHHHHHHHHHHHHHHHHHHHHHHHHHHHHHHHHHHHHHHHHHHHHh     ",
"    eHHHHHHHHHHHHHHHHHHHHHHHHHHHHHHHHHHHHHHHHHHHHHHHHHHHHHH;    ",
"    VHHHHHHHHHHHHHHHHHHHHHHHHHHHHHHHHHHHHHHHHHHHHHHHHHHHHHHf    ",
"   2HHHHHHHHHHHHHHHHHHHHHHHHHHHHHHHHHHHHHHHHHHHHHHHHHHHHHHHFO   ",
"   gHHHHHHHHHHHHHHHHHHHHHHHHHHHHHHHHHHHHHHHHHHHHHHHHHHHHHHHH9   ",
"   AHHHHHHHHHHHHHHHHHHHHHHHHHHHHHHHHHHHHHHHHHHHHHHHHHHHHHHHHx   ",
"  1HHHHHHHHHHHHHHHHHHHHHHHHHHHHHHHHHHHHHHHHHHHHHHHHHHHHHHHHHF.  ",
"  yHHHHHHHHHHHHHHHHHHHHHHHHHHHHHHHHHHHHHHHHHHHHHHHHHHHHHHHHHH<  ",
"  vHHHHHHHHHHHHHHHHHHHHHHHHHHHHHHHHHHHHHHHHHHHHHHHHHHHHHHHHHHr  ",
"  ZHHHHHHHHHHHHHHHHHHHHHHHHHHHHHHHHHHHHHHHHHHHHHHHHHHHHHHHHHHf  ",
" +HHHHHHHHHHHHHHHHHHHHHHHHHHHHHHHHHHHHHHHHHHHHHHHHHHHHHHHHHHHn  ",
" ;HHHHHHHHHHHHHHHHHHHHHHHHHHHHHHHHHHHHHHHHHHHHHHHHHHHHHHHHHHHC  ",
" 1HHHHHHHHHHHHHHHHHHHHHHHHHHHHHHHHHHHHHHHHHHHHHHHHHHHHHHHHHHHG  ",
" 5HHHHHHHHHHHHHHHHHHHHHHHHHHHHHHHHHHHHHHHHHHHHHHHHHHHHHHHHHHHH  ",
" 6HHHHHHHHHHHHHHHHHHHHHHHHHHHHHvNHHHHHHHHHHHHHHHHHHHHHHHHHHHHH. ",
" 6HHHHHHHHHHHHHHHHHHHHHHHHHHHHmo@nHHHHHHHHHHHHHHHHHHHHHHHHHHHH  ",
" 1HHHHHHHHHHHHHHHHHHHHHHHHHHHB#  XxHHHHHHHHHHHHHHHHHHHHHHHHHHD  ",
" :HHHHHHHHHHHHHHHHHHHHHHHHHHZ=     sHHHHHHHHHHHHHHHHHHHHHHHHHB  ",
" +HHHHHHHHHHHHHHHHHHHHHHHHHF,       yHHHHHHHHHHHHHHHHHHHHHHHHb  ",
"  AHHHHHHHHHHHHHHHHHHHHHHHH4         0GHHHHHHHHHHHHHHHHHHHHHHd  ",
"  cHHHHHHHHHHHHHHHHHHHHHHHq           3FHHHHHHHHHHHHHHHHHHHHHe  ",
"  tHHHHHHHHHHHHHHHHHHHHHHu             ,ZHHHHHHHHHHHHHHHHHHHH>  ",
"  ,HHHHHHHHHHHHHHHHHHHHHg               =BHHHHHHHHHHHHHHHHHHA   ",
"   ZHHHHHHHHHHHHHHHHHHHc                 #mHHHHHHHHHHHHHHHHHg   ",
"   aHHHHHHHHHHHHHHHHHHmo                  ocHHHHHHHHHHHHHHHH4   ",
"   ,HHHHHHHHHHHHHHHHHB#                    .gHHHHHHHHHHHHHHZ.   ",
"    MHHHHHHHHHHHHHHHZ=                       iHHHHHHHHHHHHHy    ",
"    8HHHHHHHHHHHHHHF,                         wHHHHHHHHHHHF#    ",
"     NHHHHHHHHHHHHH4                           6FHHHHHHHHHp     ",
"     3HHHHHHHHHHHH0                             <AHHHHHHHZ@     ",
"      lHHHHHHHHHHy                               -VHHHHHH0      ",
"      #AHHHHHHHHf                                 $MHHHHx       ",
"       6HHHHHHHx                                   ObHHC#       ",
"        iHHHHHmo                                    .jF>        ",
"         hHHHB#                                       ;         ",
"          kHZ*                                                  ",
"           s,                                                   ",
"                                                                ",
"                                                                ",
"                                                                ",
"                                                                ",
"                                                                ",
"                                                                ",
"                                                                ",
"                                                                ",
"                                                                "
};
