/* XPM */
static char *New_Project1710554623[] = {
/* columns rows colors chars-per-pixel */
"64 64 32 1 ",
"  c #010101",
". c #0A0101",
"X c #140101",
"o c #1A0101",
"O c #240101",
"+ c #2C0101",
"@ c #330101",
"# c #3C0101",
"$ c #440101",
"% c #4D0101",
"& c #520101",
"* c #5C0000",
"= c #630101",
"- c #6D0000",
"; c #730101",
": c #7C0000",
"> c #840101",
", c #8B0101",
"< c #930101",
"1 c #9C0000",
"2 c #A40000",
"3 c #AC0000",
"4 c #B50000",
"5 c #BC0000",
"6 c #C30000",
"7 c #CA0000",
"8 c #D20000",
"9 c #DC0000",
"0 c #E30000",
"q c #EC0000",
"w c #F30000",
"e c #FA0000",
/* pixels */
"                                                                ",
"                                                                ",
"                           .XXXX..                              ",
"                      .O#*<3466633<=#o.                         ",
"                    .+&269qeeeeeewq971&O.                       ",
"                   .:68qwq6,:=&=:<5wwq85>X                      ",
"                .+=7w96<*O         O=<69w3;+.                   ",
"               X#6q01$O.             .O&<qq5$.                  ",
"              X%,q92#.                .X#38q<+X                 ",
"             .:qq>@X .                   .O<q8>.                ",
"            .%9q4O.                       .O2w8#X               ",
"            #30:#.                         .$5q3&.              ",
"          .&6q<X                             +:w9%              ",
"         .o6w4X                              .O5w4X             ",
"         .$00-                                .>80#             ",
"        .%39-o                                 X&95o            ",
"        o,92+.                                 .o59%X           ",
"        +7q*.                                   .:q<#           ",
"        *w7X.       ...              .....       X99>           ",
"        3q1.      o@&*&@X.         .X+&*&+X.      >w4X          ",
"       X98:      +*<576,&O         +&,565,=+.     &w8o          ",
"       *e2#    X$8w0656qw8$      .$8w0756qw8&.    @9q$.         ",
"       <w>O   .%2w6:#@#,7q3o    .+1w6>$+$:3w4O.   O5q&o         ",
"      .30*X   O302%O. .O%79=o   O:02$O...o#60;o   O3q:O.        ",
"      O58@.   %w9+       #q6=   $90+.      +q7;   X:92#.        ",
"      #68+    -w5.        5q1   =e5.        2q1.  .=73%.        ",
"      $77O    >w3.        2w2.  ;e5.        >w3   .&55%.        ",
"      %77o    >w3.        2w2.  =e3.        ,w3.  .%57*.        ",
"      &86o    =w6X        80<   &w5X       .5q<.  .%47*.        ",
"      &76o    %q0@       $w5*   $90#.      #q6=   .%47*.        ",
"     .&86o    O393%O...O&79=o   O:93%+..XO#60;o   .%47*.        ",
"      &85o    .$1w7,$#$<8w1o    .+<w8,$#$,5q3o    .%46*.        ",
"      %86o    ..#6qq888qq6#      .#500978qq5$.    .%55=..       ",
"     .%85X       o$:343-#X         o$;343;%o      .%56&.        ",
"     .&86o        .X+@+X.           .X+#+X.       .%56=.        ",
"      %86X         . ..                ...        .%57&.        ",
"     .%86o                                         %37&.        ",
"     .&86X                                        .%57*.        ",
"      %86X                                        .%37&.        ",
"     .&86o                                        .%57=.        ",
"      %85o                                        .%56*.        ",
"     .%86o                                        .%56*.        ",
"     .&86X                                        .%36*.        ",
"     .%86o                                        .%58*.        ",
"      %86o                                        .%47*.        ",
"     .%85o     .                             .    .%56*.        ",
"     .%86X    XOX           .X+X            .+X   .%56*.        ",
"     .%86X    >6>.          .<6:            ;5<.  .%56*.        ",
"      &85o .O,ewq-O.      .@:wee<O.      .o:eew:#..%56*.        ",
"     .&85o $2q948q<@      @5q830q2#.     +:0038w5#.%56*.        ",
"      %86oX,9w<&,w8;.    X;qq,&2q9>.    .:6w1&>wq>X%56*.        ",
"     .&87&,w9;. .,0w<o .+<w7,. .;0q>+..O:wq:..X>8w1;56*.        ",
"     .%8917q2@  .#2q8%oo-80,#   #2q7-oo*5q5#   #>09186*.        ",
"      &8ewq-O.   .O,e7129w>o.   .+:w9,:9w:#.   .o>eqw8=.        ",
"     .%8e8<.        ,qee0<.       X20ew01.        <qe6*.        ",
"      &88&o         o,77-o         O;89;O         o>86*.        ",
"      &6<o.          $>:O.         .+,<+.         .#>5*.        ",
"      @$.             .              ..             X%+.        ",
"      ..                                             X.         ",
"                                                                ",
"                                                                ",
"                                                                ",
"                                                                ",
"                                                                "
};
