/* XPM */
static char *New_Project1710086920[] = {
/* columns rows colors chars-per-pixel */
"64 64 3 1 ",
"  c #0F8004",
". c black",
"X c #3ABF2E",
/* pixels */
"                 ..............................                 ",
"                 XXXXXXXXXXXXXXXXXXXXXXXXXXXXXX                 ",
"                 XXXXXXXXXXXXXXXXXXXXXXXXXXXXXX                 ",
"                 XXXXXXXXXXXXXXXXXXXXXXXXXXXXXX                 ",
"                 XXXXXXXXXXXXXXXXXXXXXXXXXXXXXX                 ",
"                 ..............................                 ",
"                 ..............................                 ",
"                 ..............................                 ",
"                 ..............................                 ",
"                 ..............................                 ",
"                 ..............................                 ",
"                 XXXXXXXXXXXXXXXXXXXXXXXXXXXXXX                 ",
"                 XXXXXXXXXXXXXXXXXXXXXXXXXXXXXX                 ",
"                 XXXXXXXXXXXXXXXXXXXXXXXXXXXXXX                 ",
"                 XXXXXXXXXXXXXXXXXXXXXXXXXXXXXX                 ",
"                 ..............................                 ",
"                 ..............................                 ",
".XXXX......XXXX..................................XXXX......XXXX.",
".XXXX......XXXX..................................XXXX......XXXX.",
".XXXX......XXXX..................................XXXX......XXXX.",
".XXXX......XXXX..................................XXXX......XXXX.",
".XXXX......XXXX..................................XXXX......XXXX.",
".XXXX......XXXX..................................XXXX......XXXX.",
".XXXX......XXXX..................................XXXX......XXXX.",
".XXXX......XXXX..................................XXXX......XXXX.",
".XXXX......XXXX..................................XXXX......XXXX.",
".XXXX......XXXX..................................XXXX......XXXX.",
".XXXX......XXXX..................................XXXX......XXXX.",
".XXXX......XXXX..................................XXXX......XXXX.",
".XXXX......XXXX..................................XXXX......XXXX.",
".XXXX......XXXX..................................XXXX......XXXX.",
".XXXX......XXXX..................................XXXX......XXXX.",
".XXXX......XXXX..................................XXXX......XXXX.",
".XXXX......XXXX..................................XXXX......XXXX.",
".XXXX......XXXX..................................XXXX......XXXX.",
".XXXX......XXXX..................................XXXX......XXXX.",
".XXXX......XXXX..................................XXXX......XXXX.",
".XXXX......XXXX..................................XXXX......XXXX.",
".XXXX......XXXX..................................XXXX......XXXX.",
".XXXX......XXXX..................................XXXX......XXXX.",
".XXXX......XXXX..................................XXXX......XXXX.",
".XXXX......XXXX..................................XXXX......XXXX.",
".XXXX......XXXX..................................XXXX......XXXX.",
".XXXX......XXXX..................................XXXX......XXXX.",
".XXXX......XXXX..................................XXXX......XXXX.",
".XXXX......XXXX..................................XXXX......XXXX.",
".XXXX......XXXX..................................XXXX......XXXX.",
"                 ..............................                 ",
"                 ..............................                 ",
"                 XXXXXXXXXXXXXXXXXXXXXXXXXXXXXX                 ",
"                 XXXXXXXXXXXXXXXXXXXXXXXXXXXXXX                 ",
"                 XXXXXXXXXXXXXXXXXXXXXXXXXXXXXX                 ",
"                 XXXXXXXXXXXXXXXXXXXXXXXXXXXXXX                 ",
"                 ..............................                 ",
"                 ..............................                 ",
"                 ..............................                 ",
"                 ..............................                 ",
"                 ..............................                 ",
"                 ..............................                 ",
"                 XXXXXXXXXXXXXXXXXXXXXXXXXXXXXX                 ",
"                 XXXXXXXXXXXXXXXXXXXXXXXXXXXXXX                 ",
"                 XXXXXXXXXXXXXXXXXXXXXXXXXXXXXX                 ",
"                 XXXXXXXXXXXXXXXXXXXXXXXXXXXXXX                 ",
"                 ..............................                 "
};
