/* XPM */
static char *_30f09ac35594d92f1a67f4255d1567eIPKwhyQYZQzjkXly[] = {
/* columns rows colors chars-per-pixel */
"64 64 64 1 ",
"  c black",
". c #030602",
"X c #040702",
"o c #050A03",
"O c #070D04",
"+ c #080F05",
"@ c #0A1306",
"# c #0B1406",
"$ c #0C1607",
"% c #0D1908",
"& c #0F1C09",
"* c #111F0A",
"= c #11210A",
"- c #15270C",
"; c #16280D",
": c #192E0F",
"> c #1B3310",
", c #1C3310",
"< c #1D3611",
"1 c #1F3912",
"2 c #203B13",
"3 c #203C13",
"4 c #223F14",
"5 c #234115",
"6 c #244315",
"7 c #274817",
"8 c #284A18",
"9 c #2B501A",
"0 c #2D531B",
"q c #2E551B",
"w c #2F561C",
"e c #315B1D",
"r c #325D1E",
"t c #34601F",
"y c #356220",
"u c #376521",
"i c #396A22",
"p c #3A6C23",
"a c #3C6F24",
"s c #3C7024",
"d c #407626",
"f c #417826",
"g c #437C28",
"h c #447E29",
"j c #47832A",
"k c #47842B",
"l c #48852B",
"z c #4A892C",
"x c #4D8E2E",
"c c #4E912F",
"v c #50932F",
"b c #509530",
"n c #529831",
"m c #549B32",
"M c #569F33",
"N c #56A033",
"B c #57A034",
"V c #58A335",
"C c #59A435",
"Z c #5BA937",
"A c #5CAA37",
"S c #5EAE38",
"D c #5FB039",
"F c #61B33A",
/* pixels */
"                                                                ",
"                           o-,253<;+                            ",
"                       ;qhMFFFFFFFFFCjr<O                       ",
"                    *tMFFFFFFFFFFFFFFFFFSh4.                    ",
"                  2cFFFFFFFFFFFFFFFFFFFFFFFCt@                  ",
"                :vFFFFFFFFFFFFFFFFFFFFFFFFFFFAq.                ",
"              +fFFFFFFFFFFFFFFFFFFFFFFFFFFFFFFFb-               ",
"             <CFFFFFFFFFFFFFFFFFFFFFFFFFFFFFFFFFDe              ",
"            eFFFFFFFFFFFFFFFFFFFFFFFFFFFFFFFFFFFFFzO            ",
"           sFFFFFFFFFFFFFFFFFFFFFFFFFFFFFFFFFFFFFFFn$           ",
"          0FFFFFFFFFFFFFFFFFFFFFFFFFFFFFFFFFFFFFFFFFm@          ",
"          .kFFFFFFFFFFFFFFFFFFFFFFFFFFFFFFFFFFFFFFFFFbo         ",
"           .kFFFFFFFFFFFFFFFFFFFFFFFFFFFFFFFFFFFFFFFFFk         ",
"            .kFFFFFFFFFFFFFFFFFFFFFFFFFFFFFFFFFFFFFFFFFy        ",
"             .kFFFFFFFFFFFFFFFFFFFFFFFFFFFFFFFFFFFFFFFFF1       ",
"              .kFFFFFFFFFFFFFFFFFFFFFFFFFFFFFFFFFFFFFFFFC+      ",
"               .kFFFFFFFFFFFFFFFFFFFFFFFFFFFFFFFFFFFFFFFFs      ",
"                .kFFFFFFFFFFFFFFFFFFFFFFFFFFFFFFFFFFFFFFFF=     ",
"                 .kFFFFFFFFFFFFFFFFFFFFFFFFFFFFFFFFFFFFFFFg     ",
"                  .kFFFFFFFFFFFFFFFFFFFFFFFFFFFFFFFFFFFFFFF&    ",
"                   .kFFFFFFFFFFFFFFFFFFFFFFFFFFFFFFFFFFFFFFi    ",
"                    .lFFFFFFFFFFFFFFFFFFFFFFFFFFFFFFFFFFFFFZ.   ",
"                     .lFFFFFFFFFFFFFFFFFFFFFFFFFFFFFFFFFFFFF<   ",
"                      .lFFFFFFFFFFFFFFFFFFFFFFFFFFFFFFFFFFFFp   ",
"                       .lFFFFFFFFFFFFFFFFFFFFFFFFFFFFFFFFFFFM   ",
"                        .lFFFFFFFFFFFFFFFFFFFFFFFFFFFFFFFFFFF@  ",
"                         .lFFFFFFFFFFFFFFFFFFFFFFFFFFFFFFFFFF>  ",
"                          .lFFFFFFFFFFFFFFFFFFFFFFFFFFFFFFFFF0  ",
"                           .lFFFFFFFFFFFFFFFFFFFFFFFFFFFFFFFFu  ",
"                            .lFFFFFFFFFFFFFFFFFFFFFFFFFFFFFFFf  ",
"                             .lFFFFFFFFFFFFFFFFFFFFFFFFFFFFFFj  ",
"                              .zFFFFFFFFFFFFFFFFFFFFFFFFFFFFFz  ",
"                              %BFFFFFFFFFFFFFFFFFFFFFFFFFFFFFz  ",
"                             %BFFFFFFFFFFFFFFFFFFFFFFFFFFFFFFj  ",
"                            %NFFFFFFFFFFFFFFFFFFFFFFFFFFFFFFFd  ",
"                           %BFFFFFFFFFFFFFFFFFFFFFFFFFFFFFFFFt  ",
"                          %MFFFFFFFFFFFFFFFFFFFFFFFFFFFFFFFFF8  ",
"                         %BFFFFFFFFFFFFFFFFFFFFFFFFFFFFFFFFFF;  ",
"                        %BFFFFFFFFFFFFFFFFFFFFFFFFFFFFFFFFFFFX  ",
"                       %BFFFFFFFFFFFFFFFFFFFFFFFFFFFFFFFFFFFz   ",
"                      %BFFFFFFFFFFFFFFFFFFFFFFFFFFFFFFFFFFFFe   ",
"                     %BFFFFFFFFFFFFFFFFFFFFFFFFFFFFFFFFFFFFF*   ",
"                    %BFFFFFFFFFFFFFFFFFFFFFFFFFFFFFFFFFFFFFb    ",
"                   %MFFFFFFFFFFFFFFFFFFFFFFFFFFFFFFFFFFFFFF8    ",
"                  %MFFFFFFFFFFFFFFFFFFFFFFFFFFFFFFFFFFFFFFCX    ",
"                 %MFFFFFFFFFFFFFFFFFFFFFFFFFFFFFFFFFFFFFFFq     ",
"                %MFFFFFFFFFFFFFFFFFFFFFFFFFFFFFFFFFFFFFFFCo     ",
"               %MFFFFFFFFFFFFFFFFFFFFFFFFFFFFFFFFFFFFFFFF6      ",
"              %MFFFFFFFFFFFFFFFFFFFFFFFFFFFFFFFFFFFFFFFFz       ",
"             %MFFFFFFFFFFFFFFFFFFFFFFFFFFFFFFFFFFFFFFFFC#       ",
"            %MFFFFFFFFFFFFFFFFFFFFFFFFFFFFFFFFFFFFFFFFF>        ",
"           %MFFFFFFFFFFFFFFFFFFFFFFFFFFFFFFFFFFFFFFFFF0         ",
"          %MFFFFFFFFFFFFFFFFFFFFFFFFFFFFFFFFFFFFFFFFFi          ",
"          3FFFFFFFFFFFFFFFFFFFFFFFFFFFFFFFFFFFFFFFFFs           ",
"           3FFFFFFFFFFFFFFFFFFFFFFFFFFFFFFFFFFFFFFFu            ",
"            ;CFFFFFFFFFFFFFFFFFFFFFFFFFFFFFFFFFFFS7             ",
"             #lFFFFFFFFFFFFFFFFFFFFFFFFFFFFFFFFFx&              ",
"               8CFFFFFFFFFFFFFFFFFFFFFFFFFFFFFSw                ",
"                OuSFFFFFFFFFFFFFFFFFFFFFFFFFFf#                 ",
"                  @uAFFFFFFFFFFFFFFFFFFFFFZi&                   ",
"                    o7hSFFFFFFFFFFFFFFFAf3.                     ",
"                       .;9pjnVAFSCmlaq;                         ",
"                                                                ",
"                                                                "
};
