/* XPM */
static char *leftdown1709876153[] = {
/* columns rows colors chars-per-pixel */
"64 64 25 1 ",
"  c black",
". c #010B18",
"X c #020E1D",
"o c #03142C",
"O c #031732",
"+ c #031A38",
"@ c #041D3E",
"# c #05234B",
"$ c #062E63",
"% c #07326B",
"& c #07326C",
"* c #073470",
"= c #073777",
"- c #073878",
"; c #083878",
": c #083A7D",
"> c #083D83",
", c #083E86",
"< c #083F89",
"1 c #09428E",
"2 c #094390",
"3 c #094696",
"4 c #0A499D",
"5 c #0A4BA2",
"6 c #0C57BB",
/* pixels */
"                   :666@                #666*                   ",
"                   :666@                #666*                   ",
"                   :666@                #666*                   ",
"                   :666@                #666*                   ",
"                   :666@                #666*                   ",
"                   :666@                #666*                   ",
"                   :666@                #666*                   ",
"                   :666@                #666*                   ",
"                   :666@                #666*                   ",
"                   :666@                #666*                   ",
"                   :666@                #666*                   ",
"                   :666@                #666*                   ",
"                   :666@                #666*                   ",
"                   :666@                #666*                   ",
"                   :666@                #666*                   ",
"                   :666@                #666*                   ",
"                   :666@                #666*                   ",
"                   :666@                #666*                   ",
"                   :666@                #666*                   ",
"                   5666<****************16664*******************",
"                   666666666666666666666666666666666666666666666",
"                   666666666666666666666666666666666666666666666",
"                   666666666666666666666666666666666666666666666",
"                   3666*################;6661###################",
"                   :666@                #666*                   ",
"                   :666@                #666*                   ",
"                   :666@                #666*                   ",
"                   :666@                #666*                   ",
"                   :666@                #666*                   ",
"                   :666@                #666*                   ",
"                   :666@                #666*                   ",
"                   :666@                #666*                   ",
"                   :666@                #666*                   ",
"                   :666@                #666*                   ",
"                   :666@                #666*                   ",
"                   :666@                #666*                   ",
"                   :666@                #666*                   ",
"                   :666@                #666*                   ",
"                   :666@                #666*                   ",
"                   :666@                #666*                   ",
"                   2666$++++++++++++++++&666,+++++++++++++++++++",
"                   666666666666666666666666666666666666666666666",
"                   666666666666666666666666666666666666666666666",
"                   666666666666666666666666666666666666666666666",
"                   -:>:*%%%%%%%%%%%%%%%%*>:>=%%%:>>>>>>>>>>>>>>>",
"                                                                ",
"                                                                ",
"                                                                ",
"                                                                ",
"                                                                ",
"                                                                ",
"                                                                ",
"                                                                ",
"                                                                ",
"                                                                ",
"                                                                ",
"                                                                ",
"                                                                ",
"                                                                ",
"                                                                ",
"                                                                ",
"                                                                ",
"                                                                ",
"                   O###.                X###o                   "
};
