/* XPM */
static char *_a0ec919ad7244f2e1efb3d146ca4812miUKBlJRBJC63TTB[] = {
/* columns rows colors chars-per-pixel */
"64 64 2 1 ",
"  c black",
". c #1525C4",
/* pixels */
"                                                                ",
"                                                                ",
"                                                                ",
"                                                                ",
"                                                                ",
"                                                                ",
"                                                                ",
"                                                                ",
"                                                                ",
"                                                                ",
"                                                                ",
"                                                                ",
"                                                                ",
"                                                                ",
"                    ............................................",
"                  ..............................................",
"                ................................................",
"               .................................................",
"              ..................................................",
"             ...................................................",
"            ....................................................",
"            ....................................................",
"            ....................................................",
"            ....................................................",
"            ....................................................",
"            ....................................................",
"            ..............                                      ",
"            .............                                       ",
"            ............                                        ",
"            ............                                        ",
"            ............                                        ",
"            ............                                        ",
"            ............                                        ",
"            ............                                        ",
"            ............                                        ",
"            ............                                        ",
"            ............                                        ",
"            ............                                        ",
"            ............                                        ",
"            ............                                        ",
"            ............                                        ",
"            ............                                        ",
"            ............                                        ",
"            ............                                        ",
"            ............                                        ",
"            ............                                        ",
"            ............                                        ",
"            ............                                        ",
"            ............                                        ",
"            ............                                        ",
"            ............                            ............",
"            ............                           .............",
"            ............                          ..............",
"            ............                          ..............",
"            ............                          ..............",
"            ............                          ..............",
"            ............                          ..............",
"            ............                          ..............",
"            ............                          ..............",
"            ............                          ..............",
"            ............                          ..............",
"            ............                          ..............",
"            ............                          ............. ",
"            ............                          ............  "
};
