/* XPM */
static char *ex1710556294[] = {
/* columns rows colors chars-per-pixel */
"64 64 70 1 ",
"  c #108004",
". c black",
"X c #000100",
"o c #000004",
"O c #010005",
"+ c #000C00",
"@ c #070007",
"# c #0A0009",
"$ c #010004",
"% c #000200",
"& c #000400",
"* c #001500",
"= c #000600",
"- c #030004",
"; c #070005",
": c #03000B",
"> c #000900",
", c #000A00",
"< c #080108",
"1 c #040002",
"2 c #050004",
"3 c #06000D",
"4 c #000500",
"5 c #060009",
"6 c #060105",
"7 c #000002",
"8 c #010007",
"9 c #060004",
"0 c #0B000E",
"q c #000F00",
"w c #000805",
"e c #050500",
"r c #02050A",
"t c #020300",
"y c #010409",
"u c #050000",
"i c #040007",
"p c #050008",
"a c #120009",
"s c #030002",
"d c #000106",
"f c #010000",
"g c #010008",
"h c #020003",
"j c #000401",
"k c #000300",
"l c #060007",
"z c #000005",
"x c #060005",
"c c #040006",
"v c #040603",
"b c #0A0006",
"n c #0A0106",
"m c #000308",
"M c #0B0007",
"N c #030005",
"B c #010900",
"V c #001600",
"C c #040004",
"Z c #030300",
"A c #040000",
"S c #08000D",
"D c #010002",
"F c #000700",
"G c #010300",
"H c #010302",
"J c #010204",
"K c #020307",
"L c #070009",
"P c #030007",
/* pixels */
"                 ....................XXXoO+@#$%                 ",
"                 ..............................                 ",
"                 ..............................                 ",
"                 ..............................                 ",
"                 ..............................                 ",
"                 ..............................                 ",
"                 ..............................                 ",
"                 ..............................                 ",
"                 ..............................                 ",
"                 ..............................                 ",
"                 ..............................                 ",
"                 ..............................                 ",
"                 ..............................                 ",
"                 ..............................                 ",
"                 ..............................                 ",
"                 ..............................                 ",
"                 ..............................                 ",
"&..............................................*&....=oooo=....&",
"...............................................-.....;:>,:;.....",
"<.....................12.......................3<....4&&&&4....@",
"5.....................6X.......................75....890098....5",
"q.....................w&.......................eq....rtXXty....q",
"o.....................&.......................Xuo....4%ip%4....o",
"7......................a................a.4Xsdds7....fg%%gf....7",
"X...............................................X....%.hh.%....X",
"X...............................................X....%.hh.%....X",
"X...............................................X....%.hh.%....X",
"X...............................................X....%.hh.%....X",
"X...............................................X....%.hh.%....X",
"X...............................................X....%.hh.%....X",
"X...............................................X....%.hh.%....X",
"X...............................................X....%.hh.%....X",
"X...............................................X....%.hh.%....X",
"X...............................................X....%.hh.%....X",
"X...............................................X....%.hh.%....X",
"X...............................................X....%.hh.%....X",
"X...............................................X....%.hh.%....X",
"X....%.hh.%....X................................X....%.hh.%....X",
"X....%.hh.%....X................................X....%.hh.%....X",
"X....%.hh.%....X................................X....%.hh.%....X",
"7....fg%%gf....7sddsX4.a................a.4Xsdds7....fg%%gf....7",
"o....4%ip%4....ouXX96j&..................&j69XXuo....4%ip%4....o",
"q....rtXXty....qe=k1lzw&................&wzl1k=eq....rtXXty....q",
"5....890098....57&&%xl6X................X6lx%&&75....890098....5",
"<....4&&&&4....@3cX&v112................211v&Xc3<....4&&&&4....@",
".....;:>,:;.....-bnX&%Xm................mX%&Xnb-.....;:>,:;.....",
"&....=oooo=....&*kMN&BXz................zXB&NMk*&....=oooo=....&",
"                 VC37ZA6................6AZ73CV                 ",
"                 %$#@+OoXXXXXXXXXXXXXXXXoO+@#$%                 ",
"                 ..............................                 ",
"                 ..............................                 ",
"                 ..............................                 ",
"                 ..............................                 ",
"                 4S&ok4D%%%%%%%%%%%%%%%%D4ko&S4                 ",
"                 o$FlGHJ................JHGlF$o                 ",
"                 K4&L&PXhhhhhhhhhhhhhhhhXP&L&4K                 ",
"                 K4&L&PXhhhhhhhhhhhhhhhhXP&L&4K                 ",
"                 o$FlGHJ................JHGlF$o                 ",
"                 4S&ok4D%%%%%%%%%%%%%%%%D4ko&S4                 ",
"                 ..............................                 ",
"                 ..............................                 ",
"                 ..............................                 ",
"                 ..............................                 ",
"                 %$#@+OoXXXXXXXXXXXXXXXXoO+@#$%                 "
};
