/* XPM */
static char *b479a72d270d4d62c4ddf619c255558e6q1886n5oYKk0clk[] = {
/* columns rows colors chars-per-pixel */
"64 64 62 1 ",
"  c black",
". c #020401",
"X c #040702",
"o c #040903",
"O c #070D04",
"+ c #080F04",
"@ c #091105",
"# c #0B1507",
"$ c #0C1607",
"% c #0E1A08",
"& c #0F1D09",
"* c #101E09",
"= c #13230B",
"- c #14250C",
"; c #172B0D",
": c #192E0F",
"> c #1A300F",
", c #1A3110",
"< c #1C3310",
"1 c #1E3712",
"2 c #1E3812",
"3 c #213D13",
"4 c #213E14",
"5 c #224014",
"6 c #254516",
"7 c #284917",
"8 c #294B18",
"9 c #294C19",
"0 c #2B501A",
"q c #2C521A",
"w c #2F561C",
"e c #315A1D",
"r c #325D1E",
"t c #34611F",
"y c #376721",
"u c #386822",
"i c #3A6C23",
"p c #3C6F24",
"a c #3D7125",
"s c #3F7526",
"d c #427B27",
"f c #427B28",
"g c #437D28",
"h c #457F29",
"j c #458029",
"k c #48842B",
"l c #49882C",
"z c #4D8E2E",
"x c #4F932F",
"c c #50932F",
"v c #519530",
"b c #529831",
"n c #559C32",
"m c #57A134",
"M c #58A334",
"N c #59A435",
"B c #5BA937",
"V c #5CA937",
"C c #5DAC37",
"Z c #5DAD38",
"A c #5FB039",
"S c #61B33A",
/* pixels */
"                                                                ",
"                                                                ",
"                            $:1352:*o                           ",
"                        :tzCSSSSSSSSSNkr;                       ",
"                     ;pBSSSSSSSSSSSSSSSSSMt%                    ",
"                   4vSSSSSSSSSSSSSSSSSSSSSSSh;                  ",
"                 ;vSSSSSSSSSSSSSSSSSSSSSSSSSSSh&                ",
"               OaSSSSSSSSSSSSSSSSSSSSSSSSSSSSSSZr               ",
"              1NSSSSSSSSSSSSSSSSSSSSSSSSSSSSSSSSSz$             ",
"             wSSSSSSSSSSSSSSSSSSSSSSSSSSSSSSSSSSSSN-            ",
"            uSSSSSSSSSSSSSSSSSSSSSSSSSSSSSSSSSSSSSSV.           ",
"           iSSSSSSSSSSSSSSSSSSSSSSSSSSSSSSSSSSSSSSZ,            ",
"          eSSSSSSSSSSSSSSSSSSSSSSSSSSSSSSSSSSSSSSS3             ",
"         4SSSSSSSSSSSSSSSSSSSSSSSSSSSSSSSSSSSSSSS6              ",
"        =ZSSSSSSSSSSSSSSSSSSSSSSSSSSSSSSSSSSSSSSq               ",
"       .vSSSSSSSSSSSSSSSSSSSSSSSSSSSSSSSSSSSSSSt                ",
"       rSSSSSSSSSSSSSSSSSSSSSSSSSSSSSSSSSSSSSSu                 ",
"      #ZSSSSSSSSSSSSSSSSSSSSSSSSSSSSSSSSSSSSSd                  ",
"      aSSSSSSSSSSSSSSSSSSSSSSSSSSSSSSSSSSSSSj                   ",
"     #ASSSSSSSSSSSSSSSSSSSSSSSSSSSSSSSSSSSSl.                   ",
"     tSSSSSSSSSSSSSSSSSSSSSSSSSSSSSSSSSSSSco                    ",
"     NSSSSSSSSSSSSSSSSSSSSSSSSSSSSSSSSSSSb+                     ",
"    2SSSSSSSSSSSSSSSSSSSSSSSSSSSSSSSSSSSm$                      ",
"    aSSSSSSSSSSSSSSSSSSSSSSSSSSSSSSSSSSN&                       ",
"    NSSSSSSSSSSSSSSSSSSSSSSSSSSSSSSSSSV=                        ",
"   %SSSSSSSSSSSSSSSSSSSSSSSSSSSSSSSSSZ;                         ",
"   5SSSSSSSSSSSSSSSSSSSSSSSSSSSSSSSSA1                          ",
"   rSSSSSSSSSSSSSSSSSSSSSSSSSSSSSSSS4                           ",
"   sSSSSSSSSSSSSSSSSSSSSSSSSSSSSSSS7                            ",
"   kSSSSSSSSSSSSSSSSSSSSSSSSSSSSSSw                             ",
"   xSSSSSSSSSSSSSSSSSSSSSSSSSSSSSy                              ",
"   xSSSSSSSSSSSSSSSSSSSSSSSSSSSSg                               ",
"   xSSSSSSSSSSSSSSSSSSSSSSSSSSSSV:                              ",
"   lSSSSSSSSSSSSSSSSSSSSSSSSSSSSSZ<                             ",
"   fSSSSSSSSSSSSSSSSSSSSSSSSSSSSSSZ3                            ",
"   uSSSSSSSSSSSSSSSSSSSSSSSSSSSSSSSS6                           ",
"   0SSSSSSSSSSSSSSSSSSSSSSSSSSSSSSSSSq                          ",
"   :SSSSSSSSSSSSSSSSSSSSSSSSSSSSSSSSSSt                         ",
"   oSSSSSSSSSSSSSSSSSSSSSSSSSSSSSSSSSSSu                        ",
"    zSSSSSSSSSSSSSSSSSSSSSSSSSSSSSSSSSSSs                       ",
"    eSSSSSSSSSSSSSSSSSSSSSSSSSSSSSSSSSSSSh.                     ",
"    *SSSSSSSSSSSSSSSSSSSSSSSSSSSSSSSSSSSSSko                    ",
"     zSSSSSSSSSSSSSSSSSSSSSSSSSSSSSSSSSSSSSzO                   ",
"     6SSSSSSSSSSSSSSSSSSSSSSSSSSSSSSSSSSSSSSv@                  ",
"     .MSSSSSSSSSSSSSSSSSSSSSSSSSSSSSSSSSSSSSSn%                 ",
"      0SSSSSSSSSSSSSSSSSSSSSSSSSSSSSSSSSSSSSSSM*                ",
"      .nSSSSSSSSSSSSSSSSSSSSSSSSSSSSSSSSSSSSSSSN-               ",
"       ,SSSSSSSSSSSSSSSSSSSSSSSSSSSSSSSSSSSSSSSSV>              ",
"        ySSSSSSSSSSSSSSSSSSSSSSSSSSSSSSSSSSSSSSSSZ2             ",
"        .xSSSSSSSSSSSSSSSSSSSSSSSSSSSSSSSSSSSSSSSSA5            ",
"         %NSSSSSSSSSSSSSSSSSSSSSSSSSSSSSSSSSSSSSSSSS9           ",
"          -BSSSSSSSSSSSSSSSSSSSSSSSSSSSSSSSSSSSSSSSSS6          ",
"           ;VSSSSSSSSSSSSSSSSSSSSSSSSSSSSSSSSSSSSSSSxO          ",
"            -NSSSSSSSSSSSSSSSSSSSSSSSSSSSSSSSSSSSSSzO           ",
"             $vSSSSSSSSSSSSSSSSSSSSSSSSSSSSSSSSSSSf.            ",
"              oiSSSSSSSSSSSSSSSSSSSSSSSSSSSSSSSSSw              ",
"                2nSSSSSSSSSSSSSSSSSSSSSSSSSSSSSc;               ",
"                 XrVSSSSSSSSSSSSSSSSSSSSSSSSSm8                 ",
"                   +enSSSSSSSSSSSSSSSSSSSSSb8.                  ",
"                      -rxSSSSSSSSSSSSSSSMp:                     ",
"                         +2tdvMVSSZnlu6%                        ",
"                                                                ",
"                                                                ",
"                                                                "
};
