/* XPM */
static char *rightup1709876153[] = {
/* columns rows colors chars-per-pixel */
"64 64 26 1 ",
"  c black",
". c #010B18",
"X c #020E1D",
"o c #03142C",
"O c #031732",
"+ c #031A38",
"@ c #041D3E",
"# c #05224A",
"$ c #05234B",
"% c #062E63",
"& c #07326B",
"* c #07326C",
"= c #073571",
"- c #073573",
"; c #073777",
": c #073878",
"> c #083878",
", c #083A7C",
"< c #083D83",
"1 c #083E86",
"2 c #09428E",
"3 c #094390",
"4 c #094696",
"5 c #0A499D",
"6 c #0A4BA2",
"7 c #0C57BB",
/* pixels */
"                   o###X                .###O                   ",
"                                                                ",
"                                                                ",
"                                                                ",
"                                                                ",
"                                                                ",
"                                                                ",
"                                                                ",
"                                                                ",
"                                                                ",
"                                                                ",
"                                                                ",
"                                                                ",
"                                                                ",
"                                                                ",
"                                                                ",
"                                                                ",
"                                                                ",
"                                                                ",
"<<<<<<<<<<<<<<<,&&&;,<,-&&&*&&&&&&&&&&&*-,,<:                   ",
"777777777777777777777777777777777777777777777                   ",
"777777777777777777777777777777777777777777777                   ",
"777777777777777777777777777777777777777777777                   ",
"+++++++++++++++++++1777*++++++++++++++++%7773                   ",
"                   -777$                @777,                   ",
"                   -777$                @777<                   ",
"                   -777$                @777,                   ",
"                   *777$                @777,                   ",
"                   -777$                @777,                   ",
"                   -777#                @777,                   ",
"                   *777#                @777,                   ",
"                   -777#                @777,                   ",
"                   -777$                @777,                   ",
"                   *777$                @777,                   ",
"                   -777$                @777,                   ",
"                   -777$                @777,                   ",
"                   -777$                @777,                   ",
"                   *777$                @777,                   ",
"                   -777$                @777,                   ",
"                   *777$                @777<                   ",
"$$$$$$$$$$$$$$$$$$$2777>$$$$$$$$$$$$$$$$*7774                   ",
"777777777777777777777777777777777777777777777                   ",
"777777777777777777777777777777777777777777777                   ",
"777777777777777777777777777777777777777777777                   ",
"*-*---*---&-*-*-*--57772--*-*-*--*-*-*--27776                   ",
"                   *777$                @777,                   ",
"                   -777$                @777,                   ",
"                   -777$                @777,                   ",
"                   *777$                @777,                   ",
"                   -777$                @777,                   ",
"                   -777$                @777,                   ",
"                   -777$                @777<                   ",
"                   *777$                @777,                   ",
"                   -777$                @777,                   ",
"                   *777$                @777,                   ",
"                   -777$                @777<                   ",
"                   *777$                @777,                   ",
"                   -777$                @777,                   ",
"                   -777$                @777,                   ",
"                   -777$                @777,                   ",
"                   *777$                @777,                   ",
"                   -777$                @777,                   ",
"                   *777$                @777<                   ",
"                   -777#                @777,                   "
};
