/* XPM */
static char *rightdown1710083505[] = {
/* columns rows colors chars-per-pixel */
"64 64 2 1 ",
"  c black",
". c #1525C4",
/* pixels */
"            ............                          ............  ",
"            ............                          ............  ",
"            ............                          ............  ",
"            ............                          ............  ",
"            ............                          ............  ",
"            ............                          ............  ",
"            ............                          ............  ",
"            ............                          ............  ",
"            ............                          ............  ",
"            ............                          ............  ",
"            ............                          ............  ",
"            ............                          ............  ",
"            ............                          ............  ",
"            ............                          ............  ",
"........................                          ............  ",
"........................                          ............  ",
"........................                          ............  ",
".......................                           ............  ",
"......................                            ............  ",
".....................                             ............  ",
"....................                              ............  ",
"..................                                ............  ",
".................                                 ............  ",
"................                                  ............  ",
"..............                                    ............  ",
".............                                     ............  ",
"                                                  ............  ",
"                                                  ............  ",
"                                                  ............  ",
"                                                  ............  ",
"                                                  ............  ",
"                                                  ............  ",
"                                                  ............  ",
"                                                  ............  ",
"                                                  ............  ",
"                                                  ............  ",
"                                                  ............  ",
"                                                  ............  ",
"                                                  ............  ",
"                                                  ............  ",
"                                                  ............  ",
"                                                  ............  ",
"                                                  ............  ",
"                                                  ............  ",
"                                                  ............  ",
"                                                  ............  ",
"                                                  ............  ",
"                                                  ............  ",
"                                                  ............  ",
"                                                  ............  ",
"..............................................................  ",
"..............................................................  ",
"..............................................................  ",
"..............................................................  ",
"..............................................................  ",
"..............................................................  ",
"..............................................................  ",
"..............................................................  ",
".............................................................   ",
"............................................................    ",
"...........................................................     ",
"..........................................................      ",
"                                                                ",
"                                                                "
};
