/* XPM */
static char *_ae1c2cd8de749aefb8621fc363facfc267GeOyJqjPd9vOk[] = {
/* columns rows colors chars-per-pixel */
"64 64 60 1 ",
"  c black",
". c #020501",
"X c #040802",
"o c #060C03",
"O c #070D04",
"+ c #080F04",
"@ c #081005",
"# c #0B1406",
"$ c #0D1908",
"% c #0F1D09",
"& c #101D09",
"* c #12220B",
"= c #13240B",
"- c #14240C",
"; c #172B0E",
": c #192E0F",
"> c #1B3210",
", c #1C3310",
"< c #1D3611",
"1 c #1F3A12",
"2 c #203B13",
"3 c #203C13",
"4 c #213D14",
"5 c #234115",
"6 c #264717",
"7 c #284B18",
"8 c #2B4F19",
"9 c #2B501A",
"0 c #2D531B",
"q c #2E561C",
"w c #2F581C",
"e c #30591D",
"r c #335F1F",
"t c #34601F",
"y c #356320",
"u c #376621",
"i c #386821",
"p c #3A6C23",
"a c #3C6F24",
"s c #3D7124",
"d c #417726",
"f c #417927",
"g c #437C28",
"h c #447D28",
"j c #47832A",
"k c #47842B",
"l c #49862B",
"z c #4A8A2C",
"x c #4D8E2E",
"c c #4E902E",
"v c #529731",
"b c #569F33",
"n c #58A335",
"m c #5AA636",
"M c #5BA937",
"N c #5CAA37",
"B c #5DAC37",
"V c #5EAE38",
"C c #5FB039",
"Z c #61B33A",
/* pixels */
"                                                                ",
"                                                                ",
"                                                                ",
"                                                                ",
"                                                                ",
"                                                                ",
"                                                                ",
"                                                                ",
"                                                                ",
"           :.                                                   ",
"          1Zg                                                   ",
"         1ZZZs                                       &r         ",
"        :CZZZZy                                     =mZ9        ",
"       #mZZZZZZ0                                   :NZZZ:       ",
"       zZZZZZZZZ6                                 1VZZZZm@      ",
"      7ZZZZZZZZZZ1                               6ZZZZZZZf      ",
"     OMZZZZZZZZZZV:                             0ZZZZZZZZZ,     ",
"     yZZZZZZZZZZZZN-                           tZZZZZZZZZZc     ",
"    @VZZZZZZZZZZZZZm%                         pZZZZZZZZZZZZ1    ",
"    rZZZZZZZZZZZZZZZb#                      .fZZZZZZZZZZZZZx    ",
"    mZZZZZZZZZZZZZZZZvO                    XlZZZZZZZZZZZZZZZ-   ",
"   <ZZZZZZZZZZZZZZZZZZxX                  OxZZZZZZZZZZZZZZZZi   ",
"   sZZZZZZZZZZZZZZZZZZZj.                #vZZZZZZZZZZZZZZZZZm   ",
"   mZZZZZZZZZZZZZZZZZZZZf               %bZZZZZZZZZZZZZZZZZZZ-  ",
"  *ZZZZZZZZZZZZZZZZZZZZZZp             *mZZZZZZZZZZZZZZZZZZZZq  ",
"  6ZZZZZZZZZZZZZZZZZZZZZZZr           :NZZZZZZZZZZZZZZZZZZZZZj  ",
"  iZZZZZZZZZZZZZZZZZZZZZZZZ8         1VZZZZZZZZZZZZZZZZZZZZZZm  ",
"  kZZZZZZZZZZZZZZZZZZZZZZZZZ5       6CZZZZZZZZZZZZZZZZZZZZZZZZO ",
"  bZZZZZZZZZZZZZZZZZZZZZZZZZC<     8ZZZZZZZZZZZZZZZZZZZZZZZZZZ* ",
"  NZZZZZZZZZZZZZZZZZZZZZZZZZZV;   rZZZZZZZZZZZZZZZZZZZZZZZZZZZ, ",
"  ZZZZZZZZZZZZZZZZZZZZZZZZZZZZN* pZZZZZZZZZZZZZZZZZZZZZZZZZZZZ2 ",
" .ZZZZZZZZZZZZZZZZZZZZZZZZZZZZZngZZZZZZZZZZZZZZZZZZZZZZZZZZZZZ5 ",
"  ZZZZZZZZZZZZZZZZZZZZZZZZZZZZZZZZZZZZZZZZZZZZZZZZZZZZZZZZZZZZ3 ",
"  VZZZZZZZZZZZZZZZZZZZZZZZZZZZZZZZZZZZZZZZZZZZZZZZZZZZZZZZZZZZ< ",
"  bZZZZZZZZZZZZZZZZZZZZZZZZZZZZZZZZZZZZZZZZZZZZZZZZZZZZZZZZZZZ- ",
"  zZZZZZZZZZZZZZZZZZZZZZZZZZZZZZZZZZZZZZZZZZZZZZZZZZZZZZZZZZZZ@ ",
"  sZZZZZZZZZZZZZZZZZZZZZZZZZZZZZZZZZZZZZZZZZZZZZZZZZZZZZZZZZZN  ",
"  0ZZZZZZZZZZZZZZZZZZZZZZZZZZZZZZZZZZZZZZZZZZZZZZZZZZZZZZZZZZz  ",
"  ;ZZZZZZZZZZZZZZZZZZZZZZZZZZZZZZZZZZZZZZZZZZZZZZZZZZZZZZZZZZt  ",
"  .BZZZZZZZZZZZZZZZZZZZZZZZZZZZZZZZZZZZZZZZZZZZZZZZZZZZZZZZZZ<  ",
"   fZZZZZZZZZZZZZZZZZZZZZZZZZZZZZZZZZZZZZZZZZZZZZZZZZZZZZZZZVX  ",
"   4ZZZZZZZZZZZZZZZZZZZZZZZZZZZZZZZZZZZZZZZZZZZZZZZZZZZZZZZZd   ",
"   .mZZZZZZZZZZZZZZZZZZZZZZZZZZZZZZZZZZZZZZZZZZZZZZZZZZZZZZZ<   ",
"    uZZZZZZZZZZZZZZZZZZZZZZZZZZZZZZZZZZZZZZZZZZZZZZZZZZZZZZb    ",
"    $CZZZZZZZZZZZZZZZZZZZZZZZZZZZZZZZZZZZZZZZZZZZZZZZZZZZZZ0    ",
"     iZZZZZZZZZZZZZZZZZZZZZZZZZZZZZZZZZZZZZZZZZZZZZZZZZZZZmX    ",
"     @NZZZZZZZZZZZZZZZZZZZZZZZZZZZZZZZZZZZZZZZZZZZZZZZZZZZ8     ",
"      qZZZZZZZZZZZZZZZZZZZZZZZZZZZZZZZZZZZZZZZZZZZZZZZZZZc      ",
"      .cZZZZZZZZZZZZZZZZZZZZZZZZZZZZZZZZZZZZZZZZZZZZZZZZC*      ",
"       %NZZZZZZZZZZZZZZZZZZZZZZZZZZZZZZZZZZZZZZZZZZZZZZZq       ",
"        3ZZZZZZZZZZZZZZZZZZZZZZZZZZZZZZZZZZZZZZZZZZZZZZh        ",
"         rZZZZZZZZZZZZZZZZZZZZZZZZZZZZZZZZZZZZZZZZZZZZx.        ",
"          iZZZZZZZZZZZZZZZZZZZZZZZZZZZZZZZZZZZZZZZZZZvo         ",
"           iZZZZZZZZZZZZZZZZZZZZZZZZZZZZZZZZZZZZZZZZc@          ",
"            eZZZZZZZZZZZZZZZZZZZZZZZZZZZZZZZZZZZZZZlX           ",
"             <MZZZZZZZZZZZZZZZZZZZZZZZZZZZZZZZZZZZu             ",
"              #kZZZZZZZZZZZZZZZZZZZZZZZZZZZZZZZZn1              ",
"                6nZZZZZZZZZZZZZZZZZZZZZZZZZZZZZa+               ",
"                 XemZZZZZZZZZZZZZZZZZZZZZZZZZf*                 ",
"                   .6xZZZZZZZZZZZZZZZZZZZZVi$                   ",
"                      *wzVZZZZZZZZZZZZZng6O                     ",
"                         .;7idjlllji0>@                         ",
"                                                                ",
"                                                                "
};
