/* XPM */
static char *wa9f1709876153[] = {
/* columns rows colors chars-per-pixel */
"64 64 6 1 ",
"  c black",
". c #041D3E",
"X c #05234B",
"o c #073470",
"O c #083A7D",
"+ c #0C57BB",
/* pixels */
"                   o+++X                .+++O                   ",
"                   o+++X                .+++O                   ",
"                   o+++X                .+++O                   ",
"                   o+++X                .+++O                   ",
"                   o+++X                .+++O                   ",
"                   o+++X                .+++O                   ",
"                   o+++X                .+++O                   ",
"                   o+++X                .+++O                   ",
"                   o+++X                .+++O                   ",
"                   o+++X                .+++O                   ",
"                   o+++X                .+++O                   ",
"                   o+++X                .+++O                   ",
"                   o+++X                .+++O                   ",
"                   o+++X                .+++O                   ",
"                   o+++X                .+++O                   ",
"                   o+++X                .+++O                   ",
"                   o+++X                .+++O                   ",
"                   o+++X                .+++O                   ",
"                   o+++X                .+++O                   ",
"                   o+++X                .+++O                   ",
"                   o+++X                .+++O                   ",
"                   o+++X                .+++O                   ",
"                   o+++X                .+++O                   ",
"                   o+++X                .+++O                   ",
"                   o+++X                .+++O                   ",
"                   o+++X                .+++O                   ",
"                   o+++X                .+++O                   ",
"                   o+++X                .+++O                   ",
"                   o+++X                .+++O                   ",
"                   o+++X                .+++O                   ",
"                   o+++X                .+++O                   ",
"                   o+++X                .+++O                   ",
"                   o+++X                .+++O                   ",
"                   o+++X                .+++O                   ",
"                   o+++X                .+++O                   ",
"                   o+++X                .+++O                   ",
"                   o+++X                .+++O                   ",
"                   o+++X                .+++O                   ",
"                   o+++X                .+++O                   ",
"                   o+++X                .+++O                   ",
"                   o+++X                .+++O                   ",
"                   o+++X                .+++O                   ",
"                   o+++X                .+++O                   ",
"                   o+++X                .+++O                   ",
"                   o+++X                .+++O                   ",
"                   o+++X                .+++O                   ",
"                   o+++X                .+++O                   ",
"                   o+++X                .+++O                   ",
"                   o+++X                .+++O                   ",
"                   o+++X                .+++O                   ",
"                   o+++X                .+++O                   ",
"                   o+++X                .+++O                   ",
"                   o+++X                .+++O                   ",
"                   o+++X                .+++O                   ",
"                   o+++X                .+++O                   ",
"                   o+++X                .+++O                   ",
"                   o+++X                .+++O                   ",
"                   o+++X                .+++O                   ",
"                   o+++X                .+++O                   ",
"                   o+++X                .+++O                   ",
"                   o+++X                .+++O                   ",
"                   o+++X                .+++O                   ",
"                   o+++X                .+++O                   ",
"                   o+++X                .+++O                   "
};
