/* XPM */
static char *_21710084949[] = {
/* columns rows colors chars-per-pixel */
"64 64 43 1 ",
"  c #000000",
". c #00010B",
"X c #010314",
"o c #01031B",
"O c #010523",
"+ c #02062C",
"@ c #030733",
"# c #02073B",
"$ c #03083C",
"% c #020742",
"& c #030945",
"* c #040A4B",
"= c #040A54",
"- c #040B59",
"; c #050D63",
": c #050E6C",
"> c #050E73",
", c #050F7B",
"< c #06107B",
"1 c #050F83",
"2 c #051084",
"3 c #081186",
"4 c #06118A",
"5 c #071294",
"6 c #081291",
"7 c #06139D",
"8 c #0B169E",
"9 c #0613A3",
"0 c #0B16A4",
"q c #0614AC",
"w c #0915AB",
"e c #0615B3",
"r c #0815B1",
"t c #0615BB",
"y c #0415C3",
"u c #0516CC",
"i c #0618CF",
"p c #0517D3",
"a c #0518D4",
"s c #0417DB",
"d c #0418DD",
"f c #0418E4",
"g c #0418E8",
/* pixels */
"                                                                ",
"                                                                ",
"                                                                ",
"                                                                ",
"                                                                ",
"                                                                ",
"                                                                ",
"             .                                                  ",
"            . ...                                               ",
"          ..ooooX..                           .                 ",
"         ..oO@@@+OooX.                  ....XoooooXX..          ",
"         oo+$**==&%#$$%*&***&&&*&&&&&&&&&&&&%=****&@OX.         ",
"         oO$=;:>>>>:>:>>,2222222311111332<1<,,>>>:-*@OX.        ",
"        .O@*;>36577779qqqqerereerrrreerrrrqq999063>-$OX..       ",
"         O$=>380retyyuiiiiupppupiiippiiiiiiuuyttr83:&@o.        ",
"        .O$->6wryuuppsddfddddddsddddddffddddspiiyw6>=@o .       ",
"         +$;,7ryiasdfffffffffffsfdfddffffgfffsspir8>-@o.        ",
"        .O$;,7tyaddfggggggffffffdfffffggggggfffsir8<=#O..       ",
"        .O%-19tisdfggggggffffsfsfddfffgfgggggffsit8<-#O.        ",
"         O$;29tisffgggggffffsfsfddfddfffgfgggggdit7,-@o..       ",
"         o$;3wyadffggggffffsfssfdfdddffffgggggfspy9<-@o         ",
"        .X$;3wyadfgggggfffsspsppaaaaasdfffgggggfduq1=@.         ",
"        ..@-6rafggggggffsspppppuuupppssddffgggffduq1=@          ",
"        .X+-4ridgggggffdsppuuuyyyuyuuusaddfgfgffduq1-@.         ",
"        .X@-6rifgggfffdsuuuyytyyytyyyuupsssfffffduq1-+.         ",
"         X+-3tafgggfgdssuuyttteeetttyyupssffffffduq1=+          ",
"         X+-3riffggffdapuyttrrqreqretyyyuaddfgffduq2=+.         ",
"         X+-6ridgggfdssuytteqww0qqqretyyipsdfdfddyq1=O          ",
"         X+-3rifggffddpuyttqq00000wwettyupsdfdffduw<*+.         ",
"        .X+-3tifgffffaiuyteq0008000wqetyypasdfddaiw2=+.         ",
"         X+-6tidggffddiuytqqw088800wqetyypadffdfauq1=OX         ",
"        .X+-3rafgfffddiuyeqq00888899qettuuadddffduq2-OX         ",
"        .X+-6rifggfffpuuttrw08088800wrtyyppsdfdfsur2=+X         ",
"        .X+=3ridgfffsspuyerw0007800wwrryuuasdffdsue2=+X         ",
"         X+-6eiffgffsspuytrrw000800wrrtyuussdfffsue2=+X         ",
"         X@-3eidggfffspuyterww000wwrrtyyuussdfdfdie2-+X         ",
"        .X+-4epdfgffsspuyyteeqqqqqqettyyupssffffsie2-+X         ",
"        ..+-4tpfgggffsspuytteerqreettyyupsssffffdie2-@o         ",
"        .X+-3eifgggfffspuuytttetetytyyuupssfffffdir4-+o         ",
"         X+-6eifggggffsspuuuyyyttyyyyuupsssffffgdpr2=+o         ",
"         o+-4eifgggggfffssuuuuyuuuuuuppssffffggffue4=+o         ",
"       . X+-4eafgggggfffdssppuppuuuppsssfffgggffsue1=+.         ",
"        .o@-4epfggggggfffdddsasasssssssfffggggffsir4=+.         ",
"       ..o@-4eiggggggggfffdfsdsssssssfffgggggfffsur1=+X         ",
"       ..o#-4rudgggggggggffffdfdsfsfffffggggggffsuq4=+.         ",
"       .Xo#-1qufgggggggggffffffffffffffggggggfffdur2*+X         ",
"       .Xo#-4quffggggggfgffffffffffffffggggggfffdur4=O.         ",
"        .o#-4qufffgffffgfgffffffffsffffffgfgfffsaur2=OX         ",
"       ..X@-3wydfddfdffdffdfddddddddddfdffdfddspiyq2*+.         ",
"        .X+=<8tiaaaaaaadiaaiaaaaaaapaippiaaaaiyytr8<*O.         ",
"        .X+*:6wretettetetttttteteettteeerrrerrq975<;$o.         ",
"         XO&;3587777880780880777707778564321,1,,,<:*+o.         ",
"         XX@&;::::::>>>>:>>>>>:>::>>:::;;--=*--=&$@+o..         ",
"           ..XXoOOOooXoooooooXooOOXXXooXX.   OOOOOoo.           ",
"                                             X.X.X...           ",
"                                              .. .              ",
"                                                                ",
"                                                                ",
"                                                                ",
"                                                                ",
"                                                                ",
"                                                                ",
"                                                                ",
"                                                                "
};
